<svg width="34" height="19" viewBox="0 0 34 19" fill="none" xmlns="http://www.w3.org/2000/svg">
<path d="M0.5 18.4979V0.5H33.5V18.4979H0.5Z" fill="white" stroke="#E5E7EB"/>
<path d="M34 0H17V19H34V0Z" fill="#BD1F38"/>
<path d="M3.93126 2.88781C3.93126 2.91962 3.89805 2.94506 3.85157 2.94506C3.80508 2.94506 3.77188 2.91962 3.77188 2.88781C3.77188 2.85601 3.80508 2.83057 3.85157 2.83057C3.89805 2.83057 3.93126 2.85601 3.93126 2.88781Z" fill="#EFECEC"/>
<path d="M1.41446 2.62058V4.01998H2.8754C2.8754 4.25533 3.1211 4.48432 3.36016 4.48432V5.88372H4.8211V4.48432C5.0668 4.48432 5.30587 4.24897 5.30587 4.01998H6.7668V2.62058H5.31251C5.31251 2.38523 5.0668 2.15623 4.82774 2.15623V0.756836H3.3668V2.15623C3.1211 2.15623 2.88204 2.39159 2.88204 2.62058H1.41446Z" fill="#D31F3B"/>
<path d="M1.46759 2.67136V3.97534H2.92853C2.92853 4.2107 3.17423 4.43969 3.41329 4.43969V5.83909H4.77462V4.43969C5.02033 4.43969 5.25939 4.20434 5.25939 3.97534H6.72032V2.67136H5.25939C5.25939 2.43601 5.01368 2.20701 4.77462 2.20701V0.807617H3.41329V2.20701C3.16759 2.20701 2.92853 2.44237 2.92853 2.67136H1.46759Z" fill="#BD1F38"/>
<path d="M1.51407 2.71628V3.93121H2.97501C2.97501 4.16657 3.22071 4.39556 3.45977 4.39556V5.79496H4.72813V4.39556C4.97383 4.39556 5.2129 4.16021 5.2129 3.93121H6.67384V2.71628H5.2129C5.2129 2.48093 4.96719 2.25194 4.72813 2.25194V0.852539H3.45977V2.25194C3.21407 2.25194 2.97501 2.48729 2.97501 2.71628H1.51407Z" fill="#91857C"/>
<path d="M1.56055 2.76072V3.88023H3.02148C3.02148 4.11559 3.26719 4.34458 3.50625 4.34458V5.74398H4.675V4.34458C4.9207 4.34458 5.15976 4.10923 5.15976 3.88023H6.6207V2.76072H5.15976C5.15976 2.52536 4.91406 2.29637 4.675 2.29637V0.896973H3.51289V2.29637C3.26719 2.29637 3.02812 2.53172 3.02812 2.76072H1.56055Z" fill="#CACACA"/>
<path d="M3.51951 2.18164C3.60584 2.26433 3.53279 2.46152 3.36678 2.6269C3.19412 2.79228 2.98826 2.85589 2.90193 2.7732C2.81561 2.69051 2.88865 2.49332 3.05467 2.32794C3.22732 2.16256 3.43982 2.09895 3.51951 2.18164Z" fill="#CFCFCE"/>
<path d="M3.41989 2.27698C3.50622 2.35967 3.47965 2.51233 3.36676 2.62047C3.25387 2.7286 3.08786 2.75405 3.00817 2.67136C2.92184 2.58866 2.9484 2.436 3.06129 2.32787C3.17418 2.21973 3.33356 2.19429 3.41989 2.27698Z" fill="#91857C"/>
<path d="M2.98828 2.52518L3.02148 2.49338L3.16094 2.55698L3.09453 2.42977L3.12773 2.3916L3.26719 2.65876L2.98828 2.52518Z" fill="#CFCFCE"/>
<path d="M3.22925 2.29566L3.19638 2.32715L3.40299 2.52505L3.43586 2.49357L3.22925 2.29566Z" fill="#CFCFCE"/>
<path d="M5.28579 2.77351C5.19946 2.85621 4.9936 2.78624 4.82095 2.62721C4.64829 2.46183 4.58188 2.26464 4.66821 2.18195C4.75454 2.09926 4.9604 2.16923 5.13305 2.32825C5.29907 2.49363 5.37212 2.69082 5.28579 2.77351Z" fill="#CFCFCE"/>
<path d="M5.17965 2.67771C5.09332 2.7604 4.93395 2.73495 4.82106 2.62682C4.70817 2.51868 4.68161 2.35966 4.76793 2.28333C4.85426 2.20064 5.01364 2.22608 5.12653 2.33422C5.24606 2.43599 5.26598 2.59501 5.17965 2.67771Z" fill="#91857C"/>
<path d="M4.92736 2.26465L4.96056 2.29645L4.88751 2.43003L5.02697 2.36006L5.06017 2.39187L4.7879 2.52544L4.92736 2.26465Z" fill="#CFCFCE"/>
<path d="M5.13217 2.45817L4.92422 2.65479L4.95688 2.68647L5.16483 2.48986L5.13217 2.45817Z" fill="#CFCFCE"/>
<path d="M4.66835 4.46558C4.58202 4.38289 4.65507 4.1857 4.82109 4.02032C4.99374 3.85494 5.1996 3.79133 5.28593 3.87402C5.37226 3.95671 5.29921 4.1539 5.1332 4.31928C4.96054 4.47831 4.75468 4.54828 4.66835 4.46558Z" fill="#CFCFCE"/>
<path d="M4.76793 4.36325C4.68161 4.28056 4.70817 4.1279 4.82106 4.01976C4.93395 3.91163 5.09997 3.88618 5.17965 3.96888C5.25934 4.05157 5.23942 4.20423 5.12653 4.31236C5.02028 4.42686 4.85426 4.44594 4.76793 4.36325Z" fill="#91857C"/>
<path d="M5.1996 4.1155L5.1664 4.1473L5.02695 4.0837L5.09335 4.21727L5.06015 4.24908L4.92734 3.98828L5.1996 4.1155Z" fill="#CFCFCE"/>
<path d="M4.78182 4.11823L4.74915 4.1499L4.95698 4.34663L4.98965 4.31496L4.78182 4.11823Z" fill="#CFCFCE"/>
<path d="M2.90193 3.8675C2.98826 3.78481 3.19412 3.85478 3.36678 4.0138C3.53943 4.17918 3.60584 4.37637 3.51951 4.45906C3.43318 4.54175 3.22732 4.47178 3.05467 4.31276C2.88865 4.15374 2.81561 3.95019 2.90193 3.8675Z" fill="#CFCFCE"/>
<path d="M3.00814 3.96888C3.09447 3.88618 3.25384 3.91163 3.36673 4.01976C3.47962 4.1279 3.50619 4.28692 3.41986 4.36325C3.33353 4.44594 3.17415 4.4205 3.06126 4.31236C2.94173 4.20423 2.92181 4.05157 3.00814 3.96888Z" fill="#91857C"/>
<path d="M3.2672 4.38288L3.22736 4.35108L3.3004 4.2175L3.16095 4.28111L3.12775 4.2493L3.40001 4.11572L3.2672 4.38288Z" fill="#CFCFCE"/>
<path d="M3.22885 3.95444L3.02225 4.15234L3.05512 4.18383L3.26172 3.98593L3.22885 3.95444Z" fill="#CFCFCE"/>
<path d="M4.09726 4.30635C3.52617 4.30635 3.06796 3.86109 3.06796 3.32041C3.06796 2.77337 3.53281 2.33447 4.09726 2.33447C4.36952 2.33447 4.62851 2.43625 4.82773 2.62071C5.02031 2.80518 5.12656 3.05325 5.12656 3.32041C5.12656 3.58121 5.02031 3.82928 4.82773 4.02011C4.62851 4.20458 4.36952 4.30635 4.09726 4.30635ZM4.09726 2.3472C3.53945 2.3472 3.08124 2.7861 3.08124 3.32041C3.08124 3.85473 3.53945 4.29363 4.09726 4.29363C4.36952 4.29363 4.62187 4.19185 4.81445 4.00739C5.00702 3.82292 5.11327 3.58121 5.11327 3.32041C5.11327 3.05961 5.00702 2.8179 4.81445 2.63344C4.62187 2.44897 4.36288 2.3472 4.09726 2.3472Z" fill="#91857C"/>
<path d="M4.09727 4.07737C3.66563 4.07737 3.30704 3.74024 3.30704 3.32042C3.30704 2.90696 3.65899 2.56348 4.09727 2.56348C4.52891 2.56348 4.88751 2.9006 4.88751 3.32042C4.88087 3.74024 4.52891 4.07737 4.09727 4.07737ZM4.09727 2.58256C3.67227 2.58256 3.32696 2.91333 3.32696 3.32042C3.32696 3.72752 3.67227 4.05829 4.09727 4.05829C4.52227 4.05829 4.86758 3.72752 4.86758 3.32042C4.86758 2.91333 4.52227 2.58256 4.09727 2.58256Z" fill="#91857C"/>
<path d="M3.75195 4.11569C3.75195 4.13477 3.74531 4.14749 3.72539 4.15386C3.71211 4.16022 3.69219 4.16022 3.67891 4.15386C3.66563 4.14749 3.65234 4.12841 3.65234 4.11569C3.65234 4.09661 3.65898 4.08389 3.67891 4.07752C3.69219 4.07116 3.71211 4.07116 3.72539 4.07752C3.74531 4.08389 3.75195 4.09661 3.75195 4.11569Z" fill="#000A22"/>
<path d="M4.53555 4.11569C4.53555 4.13477 4.52891 4.14749 4.50899 4.15386C4.49571 4.16022 4.47579 4.16022 4.46251 4.15386C4.44922 4.14749 4.43594 4.12841 4.43594 4.11569C4.43594 4.09661 4.44258 4.08389 4.46251 4.07752C4.47579 4.07116 4.49571 4.07116 4.50899 4.07752C4.52227 4.08389 4.53555 4.09661 4.53555 4.11569Z" fill="#000A22"/>
<path d="M4.06406 4.11553V4.16642H3.99765C3.93124 4.16642 3.93124 4.2173 3.99765 4.2173H4.06406V4.26819C4.06406 4.31908 4.12382 4.32544 4.12382 4.27455L4.13046 4.22367H4.19687C4.26328 4.22367 4.26328 4.17278 4.19687 4.17278H4.13046V4.12189C4.12382 4.06464 4.06406 4.06464 4.06406 4.11553Z" fill="#000A22"/>
<path d="M4.64844 3.46669C4.66836 3.46033 4.69492 3.46669 4.69492 3.46669C4.69492 3.46669 4.69492 3.47942 4.68828 3.47942C4.69492 3.48578 4.72812 3.47942 4.72812 3.47942C4.72812 3.47942 4.71484 3.48578 4.7082 3.49214C4.72148 3.49214 4.73477 3.50486 4.73477 3.50486C4.73477 3.50486 4.7082 3.51122 4.70156 3.50486C4.7082 3.51758 4.7082 3.5303 4.7082 3.5303C4.7082 3.5303 4.66836 3.51758 4.65508 3.4985L4.64844 3.46669Z" fill="#91857C"/>
<path d="M4.58204 3.44145C4.5754 3.46689 4.50235 3.42236 4.50235 3.42236C4.50235 3.42236 4.53555 3.47325 4.58204 3.47325V3.44145Z" fill="#91857C"/>
<path d="M3.69884 3.88028H4.52892L4.59532 3.82939L4.48243 3.77214L4.32306 3.72126L4.25665 3.68945L4.13048 3.69581L4.03087 3.7467L3.89142 3.75942L3.85822 3.79759L3.75197 3.80395H3.59259L3.86486 3.84212L3.63907 3.82939L3.69884 3.88028Z" fill="#91857C"/>
<path d="M4.52891 3.88031H3.69883L3.63906 3.82942L3.86484 3.83578L3.59258 3.80398L3.8582 3.79125L3.89141 3.75309L4.03086 3.73401L4.13047 3.68312L4.25664 3.67676L4.32305 3.71492L4.59531 3.82306L4.52891 3.88031ZM3.63906 3.83578L3.69883 3.87395H4.52891L4.58867 3.82306L4.25 3.68312L4.13047 3.68948L4.03086 3.74037L3.89141 3.75945L3.8582 3.79125L3.75195 3.79761H3.58594L3.8582 3.82942L3.63906 3.83578Z" fill="#000A22"/>
<path d="M4.14374 3.65103C4.03749 3.60014 4.01093 3.72736 3.96445 3.75916C4.02421 3.77188 4.0707 3.71463 4.12382 3.68919C4.16367 3.79097 4.22343 3.721 4.22343 3.721C4.22343 3.721 4.28984 3.81641 4.37617 3.77188C4.40273 3.79097 4.42265 3.77188 4.42265 3.77188C4.42265 3.77188 4.45585 3.77824 4.46249 3.76552C4.47577 3.77188 4.4957 3.7528 4.4957 3.7528C4.4957 3.7528 4.5289 3.7528 4.53554 3.73372C4.58867 3.74008 4.66171 3.63194 4.66171 3.63194L4.68163 3.59378L4.71484 3.58742C4.71484 3.58742 4.71484 3.56833 4.70156 3.56833C4.70156 3.55561 4.68828 3.54925 4.67499 3.55561C4.67499 3.54925 4.66835 3.54289 4.66835 3.54289C4.63515 3.54925 4.63515 3.61922 4.63515 3.61922C4.63515 3.61922 4.58202 3.65739 4.5621 3.66375C4.5621 3.62558 4.48906 3.56833 4.50234 3.54289C4.51562 3.51745 4.5621 3.58106 4.60195 3.56833C4.64179 3.55561 4.66171 3.50473 4.66171 3.46656C4.64843 3.44112 4.62187 3.39659 4.62187 3.39659H4.59531L4.57538 3.3457C4.57538 3.3457 4.5289 3.37751 4.5289 3.40295C4.5289 3.42839 4.58203 3.45384 4.58203 3.45384C4.58203 3.45384 4.55546 3.47292 4.5289 3.46656C4.5289 3.492 4.5621 3.48564 4.57538 3.48564C4.58203 3.50473 4.60195 3.51745 4.60195 3.51745C4.60195 3.51745 4.61523 3.54925 4.58203 3.54289C4.54882 3.54289 4.50898 3.46656 4.46913 3.50473C4.42265 3.53653 4.48906 3.60014 4.48906 3.60014C4.48906 3.60014 4.44921 3.61922 4.42265 3.67647C4.3164 3.58742 4.25663 3.62558 4.14374 3.65103Z" fill="#91857C"/>
<path d="M4.32968 3.79097C4.26991 3.79097 4.23007 3.73372 4.22343 3.72736C4.22343 3.74008 4.15038 3.76552 4.12382 3.68919C4.11718 3.70191 4.09725 3.70827 4.08397 3.721C4.05077 3.74008 4.02421 3.76552 3.98436 3.76552C3.98436 3.76552 3.98436 3.76552 3.98436 3.75916C4.02421 3.7528 4.05077 3.73372 4.07733 3.71464C4.09061 3.70191 4.11053 3.69555 4.12382 3.68283C4.16366 3.75916 4.22343 3.721 4.22343 3.721C4.23007 3.721 4.30311 3.81005 4.37616 3.77188H4.42928L4.46913 3.76552C4.50233 3.7528 4.52889 3.7528 4.53554 3.73372C4.5953 3.73372 4.66171 3.63194 4.66171 3.63194L4.68163 3.59378H4.67499L4.66835 3.54925C4.64843 3.54289 4.63514 3.60014 4.63514 3.61922C4.63514 3.62558 4.58202 3.65739 4.5621 3.67011C4.55546 3.65103 4.54218 3.62558 4.52225 3.6065C4.50233 3.58106 4.48905 3.56197 4.49569 3.54289L4.54218 3.54925C4.55546 3.56197 4.57538 3.56833 4.58866 3.56833C4.63514 3.55561 4.65507 3.51109 4.65507 3.46656C4.64843 3.44748 4.6285 3.41567 4.62186 3.40295C4.64179 3.41567 4.65507 3.44748 4.66835 3.46656C4.66835 3.51109 4.64179 3.56197 4.60194 3.57469C4.56874 3.57469 4.55546 3.56197 4.53554 3.55561C4.49569 3.55561 4.50897 3.58106 4.52889 3.60014C4.54218 3.62558 4.5621 3.64467 4.5621 3.66375C4.57538 3.65103 4.6285 3.61286 4.6285 3.61286C4.6285 3.6065 4.6285 3.54289 4.66171 3.53653L4.69491 3.56833L4.66171 3.6383C4.66171 3.64466 4.5953 3.74644 4.54218 3.74644C4.53554 3.76552 4.49569 3.76552 4.49569 3.76552L4.43593 3.79097L4.36952 3.7846V3.79097C4.36288 3.79097 4.34296 3.79097 4.32968 3.79097ZM3.97772 3.7528C3.97772 3.74008 3.991 3.72736 3.99764 3.70827C4.03085 3.65739 4.07733 3.6065 4.14374 3.64467L4.19686 3.63194C4.28319 3.61286 4.34296 3.6065 4.416 3.67011C4.43593 3.61922 4.46913 3.60014 4.47577 3.59378C4.46913 3.59378 4.43593 3.56197 4.43593 3.53017L4.48241 3.492C4.50233 3.492 4.52225 3.50473 4.53554 3.51745C4.54882 3.53017 4.5621 3.53653 4.56874 3.53653C4.58202 3.51745 4.56874 3.50473 4.5621 3.48564L4.5953 3.51109L4.56874 3.54289C4.55546 3.54289 4.54218 3.53017 4.52889 3.51745C4.51561 3.50473 4.49569 3.492 4.47577 3.492L4.43593 3.52381C4.43593 3.55561 4.46913 3.58742 4.47577 3.58742C4.47577 3.59378 4.43593 3.61286 4.40936 3.67011C4.32304 3.61286 4.26991 3.61922 4.19022 3.6383L4.13046 3.65103C4.05077 3.61922 4.02421 3.66375 3.991 3.71464C3.99764 3.73372 3.991 3.74644 3.97772 3.7528ZM4.55546 3.46656L4.58202 3.45384C4.56874 3.44748 4.52889 3.42839 4.52889 3.40295C4.52889 3.37115 4.57538 3.3457 4.57538 3.3457L4.58202 3.36479L4.56874 3.35206C4.5621 3.36479 4.52889 3.39023 4.52889 3.40931C4.52889 3.42839 4.5621 3.44748 4.57538 3.45384C4.57538 3.45384 4.57538 3.45384 4.57538 3.4602C4.57538 3.4602 4.56874 3.46656 4.55546 3.46656Z" fill="#000A22"/>
<path d="M3.99756 3.51142C4.03741 3.54958 4.01085 3.61319 4.02413 3.62591C4.04405 3.63863 4.06397 3.61955 4.06397 3.61955C4.11045 3.63227 4.19014 3.60683 4.19014 3.60683C4.22335 3.62591 4.21006 3.60047 4.22999 3.60047C4.24991 3.645 4.30967 3.63863 4.30967 3.63863C4.30967 3.63863 4.24991 3.58139 4.2167 3.56866C4.19014 3.58775 4.11045 3.58775 4.09717 3.58775C4.08389 3.58775 4.09053 3.56866 4.08389 3.55594C4.11045 3.5305 4.09053 3.46053 4.07061 3.43508C4.01085 3.3842 3.9378 3.45417 3.99756 3.51142Z" fill="#91857C"/>
<path d="M4.30312 3.63869C4.2832 3.63869 4.24335 3.63233 4.23007 3.60052C4.19023 3.61324 4.1371 3.62597 4.09726 3.62597L4.03749 3.63233L4.01093 3.5878C4.01093 3.56236 4.01093 3.53055 3.99101 3.51147C3.97109 3.49239 3.96445 3.46694 3.97109 3.44786C3.98437 3.40969 4.03749 3.39697 4.07734 3.42242C4.09726 3.45422 4.11718 3.52419 4.09062 3.54964C4.15038 3.57508 4.20351 3.56872 4.22343 3.556C4.26328 3.57508 4.32304 3.62597 4.32304 3.63233L4.30312 3.63869ZM4.23671 3.59416C4.25664 3.62597 4.28984 3.63233 4.30976 3.63233V3.63869L4.3164 3.63233C4.30976 3.63233 4.25664 3.58144 4.22343 3.56872C4.20351 3.58144 4.14374 3.5878 4.11718 3.5878L4.08398 3.54964C4.11054 3.52419 4.09062 3.45422 4.0707 3.43514C4.03749 3.41606 3.99101 3.42878 3.97773 3.46058C3.97109 3.47967 3.97773 3.49875 3.99765 3.51783C4.02421 3.54327 4.02421 3.57508 4.02421 3.60052L4.03749 3.63869L4.06406 3.62597C4.1371 3.62597 4.19023 3.61324 4.19023 3.61324L4.23671 3.59416Z" fill="#000A22"/>
<path d="M3.71204 3.39658C3.65891 3.4093 3.56594 3.32661 3.51946 3.35841C3.47297 3.39021 3.49289 3.46655 3.5261 3.50471C3.55266 3.54288 3.48625 3.5556 3.46633 3.57468C3.44641 3.59376 3.47297 3.61921 3.47297 3.61921L3.49289 3.63193L3.48625 3.65737L3.49954 3.68918C3.49954 3.68918 3.50618 3.69554 3.51282 3.68918C3.51946 3.69554 3.51282 3.72098 3.53274 3.72734C3.5261 3.71462 3.53938 3.67009 3.53938 3.67009C3.53938 3.67009 3.57922 3.67009 3.58586 3.65737C3.5925 3.63829 3.57922 3.60648 3.57922 3.60648H3.5925C3.57922 3.60012 3.57258 3.57468 3.57258 3.57468C3.57258 3.57468 3.62571 3.5556 3.62571 3.51743C3.62571 3.47927 3.53938 3.43474 3.57258 3.41566C3.60579 3.39021 3.67219 3.47291 3.72532 3.43474C3.77844 3.39657 3.74524 3.43474 3.74524 3.43474C3.74524 3.43474 3.76516 3.38385 3.71204 3.39658Z" fill="#91857C"/>
<path d="M3.53938 3.73373H3.5261L3.47961 3.66376V3.6574V3.66376H3.48626L3.51946 3.72101C3.51946 3.70193 3.5261 3.67648 3.5261 3.67012C3.5593 3.67012 3.57258 3.66376 3.57258 3.6574C3.57922 3.64468 3.56594 3.61923 3.56594 3.61287V3.57471C3.56594 3.57471 3.61907 3.55563 3.61907 3.52382C3.61907 3.50474 3.59915 3.49202 3.58586 3.47293C3.57258 3.46021 3.5593 3.44113 3.5593 3.43477C3.56594 3.42841 3.57922 3.42841 3.58586 3.42841C3.56594 3.44749 3.57922 3.46021 3.59251 3.47293C3.61243 3.49202 3.63235 3.5111 3.63235 3.53018C3.63235 3.57471 3.57922 3.58743 3.57258 3.58743C3.58586 3.61923 3.59915 3.65104 3.59251 3.67012C3.58586 3.68284 3.5593 3.68284 3.54602 3.68284C3.53938 3.6892 3.53274 3.72737 3.53938 3.74009V3.73373ZM3.47297 3.6256L3.46633 3.61923C3.45969 3.60651 3.44641 3.58743 3.45969 3.56835C3.50618 3.53654 3.51946 3.53018 3.5261 3.51746C3.50618 3.4793 3.4929 3.44749 3.4929 3.42205C3.48626 3.39024 3.49954 3.3648 3.51946 3.34572C3.57258 3.33936 3.59915 3.35208 3.62571 3.35844C3.65227 3.37116 3.67883 3.38388 3.69876 3.37752H3.74524L3.73196 3.3966L3.69211 3.38388C3.66555 3.38388 3.63899 3.37116 3.61243 3.35844C3.58586 3.34572 3.5593 3.33936 3.53938 3.33936C3.4929 3.3648 3.4929 3.39024 3.4929 3.40933C3.4929 3.43477 3.50618 3.46021 3.51946 3.48566C3.5261 3.52382 3.50618 3.53654 3.48626 3.5429C3.44641 3.58107 3.46633 3.60015 3.46633 3.60015L3.47297 3.6256Z" fill="#000A22"/>
<path d="M3.99099 2.84341C3.91794 2.8116 3.77185 2.8116 3.69216 2.77344C3.65896 2.77344 3.63903 2.80524 3.63903 2.8116C3.59919 2.8116 3.57927 2.86885 3.57927 2.87521C3.51286 2.84977 3.47966 2.95154 3.49958 2.97699C3.43982 2.97699 3.44646 3.05332 3.43982 3.0724C3.41989 3.11693 3.44646 3.12965 3.47966 3.11693C3.4863 3.13601 3.47966 3.14873 3.45974 3.14873C3.55935 3.25687 3.61911 3.07876 3.70544 3.07876C3.81833 3.04696 3.85817 2.99607 3.85817 2.99607L3.90466 3.00243L3.99099 2.84341Z" fill="#91857C"/>
<path d="M3.52617 3.18691C3.50625 3.18691 3.47969 3.17419 3.45977 3.14874L3.4332 3.11058C3.42656 3.09786 3.42656 3.08513 3.4332 3.06605C3.43984 3.02152 3.44648 2.97064 3.49297 2.97064C3.47969 2.96428 3.47969 2.93883 3.49297 2.91339C3.50625 2.88159 3.52617 2.8625 3.55273 2.86886C3.56602 2.86886 3.57266 2.84978 3.5793 2.83706C3.58594 2.82434 3.60586 2.80526 3.62578 2.80526C3.62578 2.79889 3.63906 2.76709 3.67891 2.76709C3.72539 2.78617 3.7918 2.79889 3.85156 2.80526C3.90469 2.81162 3.95117 2.81798 3.98438 2.83706L3.90469 3.00244L3.8582 2.99608C3.8582 2.99608 3.81836 3.04697 3.70547 3.07877C3.67227 3.07877 3.63906 3.10422 3.6125 3.12966C3.59258 3.16146 3.55938 3.18691 3.52617 3.18691ZM3.44648 3.11058L3.48633 3.11694L3.46641 3.1551C3.52617 3.19963 3.56602 3.17419 3.61914 3.13602C3.6457 3.11058 3.67891 3.07877 3.71211 3.07877C3.81836 3.04697 3.86484 2.99608 3.86484 2.99608L3.91133 3.00244L3.98438 2.84342C3.95781 2.83706 3.90469 2.8307 3.8582 2.81798C3.79844 2.80526 3.73203 2.79889 3.68555 2.77981C3.65234 2.77981 3.63906 2.80526 3.63906 2.81798C3.6125 2.82434 3.59922 2.84342 3.59258 2.84978L3.59922 2.85614L3.5793 2.88795C3.53945 2.88159 3.51953 2.90067 3.50625 2.92611C3.49961 2.94519 3.49297 2.97064 3.50625 2.98336C3.45977 2.98972 3.45312 3.03425 3.45312 3.06605L3.44648 3.11058Z" fill="#000A22"/>
<path d="M4.19022 2.76047C4.19022 2.81771 4.14374 2.86224 4.08397 2.86224C4.02421 2.86224 3.97772 2.81771 3.97772 2.76047C3.97772 2.70322 4.02421 2.65869 4.08397 2.65869C4.1371 2.65869 4.19022 2.70322 4.19022 2.76047Z" fill="#91857C"/>
<path d="M4.08399 2.86859C4.02422 2.86859 3.9711 2.82406 3.9711 2.76045C3.9711 2.64596 4.19024 2.64596 4.19024 2.76045C4.19024 2.8177 4.14376 2.86859 4.08399 2.86859ZM4.08399 2.66504C4.03087 2.66504 3.98438 2.70957 3.98438 2.76045C3.98438 2.86859 4.19024 2.86859 4.19024 2.76045C4.1836 2.70957 4.13712 2.66504 4.08399 2.66504Z" fill="#000A22"/>
<path d="M3.89141 3.56225C3.82501 3.54953 3.71876 3.48592 3.70547 3.39687C3.76524 3.16788 4.08399 3.28874 4.11055 3.11063C4.10391 2.99614 4.12383 2.88164 4.19024 2.78623C4.22344 2.74806 4.26329 2.7417 4.26329 2.7417C4.26329 2.7417 4.26993 2.76714 4.26329 2.77986C4.31641 2.7735 4.38946 2.80531 4.43594 2.80531C4.44922 2.83075 4.44922 2.84347 4.44922 2.86256C4.44922 2.88164 4.4293 2.87528 4.4293 2.87528C4.41602 2.888 4.40274 2.90072 4.36954 2.89436C4.34297 2.91344 4.28985 2.9198 4.28985 2.9198C4.28985 2.9198 4.40274 3.0343 4.38282 3.07247C4.40938 3.08519 4.44258 3.13607 4.44258 3.13607C4.44258 3.13607 4.52227 3.09791 4.54883 3.05974C4.59532 3.05974 4.66837 3.10427 4.70821 3.11063C4.75469 3.1488 4.80118 3.1806 4.80118 3.1806C4.80118 3.1806 4.74805 3.21241 4.72149 3.16788C4.69493 3.16788 4.62852 3.10427 4.54883 3.12335C4.54883 3.19332 4.46251 3.24421 4.46251 3.24421C4.46251 3.24421 4.54219 3.23149 4.58204 3.25693C4.62852 3.2951 4.68829 3.33962 4.68829 3.33962L4.74805 3.43504C4.74805 3.43504 4.69493 3.4414 4.67501 3.37779C4.65508 3.42868 4.65508 3.34598 4.5754 3.30782C4.54883 3.30782 4.54219 3.31418 4.52227 3.2951C4.46915 3.30782 4.3961 3.33962 4.32305 3.33326C4.26993 3.35235 4.22344 3.39687 4.17032 3.42231C4.11055 3.44776 4.09727 3.43504 4.09727 3.43504H4.05079C4.04415 3.46048 4.05079 3.50501 4.02422 3.51137C4.03751 3.53045 4.01094 3.60042 3.98438 3.61314C3.99766 3.65767 4.03751 3.67039 4.07735 3.69583C4.07735 3.69583 4.11055 3.68311 4.13712 3.70219C4.16368 3.72128 4.1836 3.77853 4.1836 3.77853C4.1836 3.77853 4.13712 3.78489 4.11719 3.77853C4.10391 3.77216 4.09727 3.75944 4.08399 3.75944C3.9711 3.66403 3.91133 3.70219 3.90469 3.68311C3.87149 3.65767 3.90469 3.60042 3.89141 3.56225Z" fill="#91857C"/>
<path d="M4.13047 3.78489L4.09063 3.77853C3.97774 3.69583 3.93126 3.69583 3.90469 3.68947C3.89805 3.68311 3.89141 3.68311 3.88477 3.67675C3.93126 3.68311 3.98438 3.68947 4.05743 3.75308L4.13047 3.78489L4.15704 3.77853C4.1504 3.77853 4.13712 3.74036 4.11719 3.72128C4.14376 3.75308 4.15704 3.77853 4.15704 3.78489H4.13047ZM4.10391 3.70219L4.04415 3.69583C3.99102 3.67039 3.96446 3.65131 3.95118 3.61314C3.9711 3.60042 3.99102 3.56862 3.99102 3.54317C3.98438 3.5877 3.9711 3.61314 3.95118 3.6195C3.96446 3.65131 3.99102 3.66403 4.02422 3.68311L4.07071 3.68947C4.09063 3.68947 4.09727 3.69583 4.10391 3.70219ZM3.88477 3.67039C3.87813 3.65767 3.87813 3.64495 3.88477 3.63223C3.89141 3.60678 3.89805 3.5877 3.89141 3.56862C3.82501 3.55589 3.71876 3.49229 3.70547 3.40323C3.73868 3.27601 3.84493 3.25057 3.94454 3.23149C4.03087 3.21241 4.10391 3.19968 4.11055 3.11699C4.10391 2.98977 4.13047 2.88164 4.19024 2.79259C4.22344 2.75442 4.26329 2.7417 4.26329 2.7417C4.26993 2.7417 4.26993 2.75442 4.26993 2.76714L4.26329 2.7417V2.74806C4.26329 2.74806 4.22344 2.76078 4.19688 2.79259C4.13712 2.88164 4.11055 2.98977 4.11719 3.11063C4.10391 3.19332 4.02422 3.21241 3.94454 3.23149C3.85157 3.25057 3.74532 3.27601 3.71212 3.39687C3.7254 3.4732 3.82501 3.54317 3.89805 3.55589C3.90469 3.58134 3.89805 3.60678 3.89141 3.63223C3.88477 3.64495 3.87813 3.66403 3.88477 3.67039ZM4.09063 3.44776H4.05743L4.07735 3.43504C4.10391 3.4414 4.12383 3.43504 4.1504 3.42232C4.17696 3.40959 4.19688 3.39687 4.22344 3.38415C4.25001 3.36507 4.27657 3.34598 4.30977 3.33962C4.38946 3.33962 4.4293 3.3269 4.46915 3.31418L4.50899 3.30146L4.56876 3.31418C4.60196 3.3269 4.62188 3.35235 4.63516 3.37143C4.61524 3.35235 4.59532 3.33326 4.56876 3.32054L4.51563 3.30782V3.31418L4.47579 3.3269C4.43594 3.33962 4.38946 3.35234 4.34298 3.35234C4.28985 3.35871 4.26329 3.37779 4.23672 3.39687C4.2168 3.40959 4.19024 3.42868 4.16368 3.4414C4.12383 3.4414 4.10391 3.44776 4.09063 3.44776ZM4.72149 3.4414C4.70157 3.4414 4.68829 3.43504 4.66837 3.41595C4.69493 3.43504 4.71485 3.4414 4.72813 3.4414L4.67501 3.35234C4.67501 3.35234 4.6086 3.30782 4.56876 3.26965C4.54883 3.25693 4.51563 3.25693 4.48907 3.25693H4.48243C4.52227 3.25057 4.55547 3.25693 4.5754 3.26965C4.62188 3.30782 4.68165 3.35234 4.68165 3.35234L4.74141 3.44776C4.72813 3.4414 4.72813 3.4414 4.72149 3.4414ZM4.47579 3.23149C4.48907 3.21241 4.52227 3.17424 4.52891 3.12335C4.6086 3.11699 4.6418 3.13607 4.66837 3.1488L4.70821 3.16788V3.16152L4.74805 3.18696L4.69493 3.11063C4.68165 3.11063 4.65508 3.09791 4.63516 3.09155C4.60196 3.07883 4.56876 3.0661 4.54219 3.0661C4.52227 3.10427 4.44258 3.14244 4.44258 3.14244C4.43594 3.14244 4.40274 3.09155 4.37618 3.07883C4.38946 3.04702 4.30977 2.95797 4.27657 2.92616C4.27657 2.9198 4.33633 2.91344 4.35626 2.89436C4.3961 2.89436 4.40938 2.888 4.41602 2.87528C4.44258 2.84983 4.44258 2.83711 4.4293 2.81167C4.41602 2.81167 4.38946 2.80531 4.3629 2.79895C4.32969 2.79259 4.30313 2.78623 4.27657 2.78623C4.30977 2.77986 4.34298 2.78623 4.36954 2.79259C4.3961 2.79895 4.41602 2.80531 4.43594 2.80531C4.45587 2.83711 4.45587 2.84983 4.44922 2.86256C4.41602 2.888 4.40274 2.90072 4.37618 2.90072C4.33633 2.9198 4.28321 2.9198 4.27657 2.9198C4.28985 2.92617 4.3961 3.0343 4.37618 3.0661C4.3961 3.07247 4.4293 3.11699 4.43594 3.12335C4.43594 3.11699 4.50899 3.07883 4.53555 3.04702C4.56212 3.04702 4.60196 3.05974 4.63516 3.07247C4.66173 3.08519 4.68165 3.09155 4.69493 3.09155L4.7879 3.16152C4.7879 3.17424 4.72149 3.19332 4.70157 3.15516C4.69493 3.15516 4.68165 3.1488 4.66172 3.14244C4.63516 3.12971 4.60196 3.11063 4.56212 3.11063C4.54219 3.17424 4.50235 3.21241 4.47579 3.23149Z" fill="#000A22"/>
<path d="M3.62582 3.14241C3.63246 3.13605 3.6723 3.14877 3.6723 3.14877L3.74535 3.19329L3.89808 3.28871L3.95121 3.36504L3.85824 3.33323L3.72543 3.2251L3.65238 3.18057C3.65238 3.17421 3.61918 3.14877 3.62582 3.14241Z" fill="#91857C"/>
<path d="M3.96438 3.37109L3.85813 3.33929L3.65227 3.18663C3.63899 3.17391 3.61907 3.15483 3.62571 3.1421C3.65227 3.13574 3.67883 3.14846 3.67883 3.14846L3.90462 3.2884L3.96438 3.37109ZM3.63235 3.13574L3.85813 3.32657L3.94446 3.35201L3.89797 3.2884L3.63235 3.13574Z" fill="#000A22"/>
<path d="M4.52225 3.37771C4.46913 3.36498 4.34296 3.51765 4.34296 3.51765L4.44257 3.61942C4.43593 3.61306 4.44257 3.44132 4.52225 3.37771Z" fill="#91857C"/>
<path d="M4.44258 3.62553L4.33633 3.51739C4.34297 3.50467 4.45586 3.37109 4.51563 3.37109C4.45586 3.38382 4.34962 3.51103 4.34962 3.51103L4.44258 3.60009C4.44258 3.56828 4.45586 3.46651 4.50235 3.39654C4.45586 3.47923 4.44922 3.60645 4.44922 3.60645L4.44258 3.62553Z" fill="#000A22"/>
<path d="M3.88475 2.95801C3.85819 2.99618 3.85155 3.06615 3.89139 3.09159C3.89139 3.13612 3.93124 3.21881 3.96444 3.23153C3.99764 3.23789 4.13046 3.26969 4.17694 3.26333C4.16366 3.34603 4.23007 3.40327 4.28983 3.4478C4.28983 3.45416 4.28983 3.46052 4.29647 3.47324C4.30311 3.47961 4.33632 3.48597 4.33632 3.4796C4.3496 3.49869 4.416 3.50505 4.42264 3.49869C4.42928 3.49233 4.32303 3.42236 4.29647 3.39691C4.27655 3.35875 4.23671 3.28242 4.23007 3.21881C4.17694 3.16156 4.09061 3.16156 4.09061 3.16156V3.04706L4.09725 2.91984L4.05077 2.8944C4.05077 2.8944 4.06405 2.88804 4.06405 2.88168C4.07733 2.88804 4.09725 2.8626 4.09725 2.85624C4.11053 2.8626 4.11717 2.8626 4.11717 2.85624C4.11717 2.84987 4.12382 2.83079 4.12382 2.81807C4.15702 2.78627 4.11717 2.72266 4.06405 2.72266C4.01092 2.72266 3.99764 2.78627 3.99764 2.79263C4.00428 2.81171 4.00428 2.82443 3.99764 2.82443C3.991 2.83079 3.97772 2.83715 3.97772 2.83715C3.97772 2.83715 3.94452 2.82443 3.91132 2.83715C3.87147 2.84987 3.83163 2.86896 3.83163 2.8944C3.81171 2.8944 3.78514 2.91984 3.78514 2.93257C3.77186 2.93257 3.75194 2.93893 3.71874 2.98981C3.65897 3.01526 3.65897 3.12975 3.65897 3.12975C3.65897 3.12975 3.64569 3.14884 3.64569 3.16156C3.64569 3.17428 3.65233 3.18064 3.65897 3.18064C3.65897 3.187 3.67225 3.19336 3.67225 3.19336C3.67225 3.19972 3.68553 3.20609 3.69218 3.20609C3.69218 3.21245 3.7121 3.21245 3.71874 3.20609C3.71874 3.19973 3.71874 3.17428 3.71874 3.17428C3.71874 3.17428 3.73866 3.187 3.7453 3.18064C3.75194 3.17428 3.7453 3.16792 3.73866 3.16156C3.73866 3.1552 3.71874 3.1552 3.71874 3.13612C3.7121 3.11703 3.73202 3.09159 3.73202 3.09159C3.73202 3.09159 3.79178 3.04706 3.79843 3.00254C3.84491 3.01526 3.87147 2.97709 3.88475 2.95801Z" fill="#91857C"/>
<path d="M4.40939 3.49871C4.38947 3.49871 4.34962 3.49235 4.33634 3.47327C4.3629 3.47963 4.39611 3.48599 4.40939 3.48599V3.49871L4.42267 3.48599C4.42267 3.47963 4.37618 3.44783 4.34962 3.42874C4.3297 3.41602 4.30978 3.39694 4.2965 3.39058C4.28986 3.37786 4.23673 3.2888 4.23009 3.21247C4.18361 3.16158 4.09728 3.16158 4.09728 3.16158V3.04073L4.10392 2.91351L4.05743 2.89443V2.88807L4.13712 2.81173C4.1504 2.79901 4.1504 2.78629 4.14376 2.76721C4.13712 2.74177 4.11056 2.72268 4.07736 2.72268C4.05743 2.72268 4.04415 2.72904 4.03751 2.74177C4.02423 2.76085 4.01759 2.78629 4.01759 2.78629L3.99103 2.83718L3.92462 2.83082V2.83718C3.89142 2.8499 3.85157 2.86898 3.84493 2.88807C3.82501 2.89443 3.79845 2.91351 3.79845 2.93259C3.77853 2.93259 3.75861 2.95167 3.73204 2.98984C3.67892 3.01528 3.67228 3.12978 3.67228 3.12978L3.66564 3.14886V3.12978H3.659C3.659 3.12342 3.66564 3.00892 3.71876 2.98348C3.74532 2.94531 3.76525 2.92623 3.77853 2.92623C3.78517 2.90715 3.81173 2.88807 3.83165 2.88807C3.83165 2.86898 3.8715 2.8499 3.91134 2.83082L3.97775 2.83718V2.83082L3.99767 2.78629C3.99767 2.77993 4.00431 2.75449 4.01759 2.7354C4.03087 2.72268 4.04415 2.70996 4.06407 2.70996C4.10392 2.70996 4.13048 2.7354 4.13712 2.76085C4.14376 2.77993 4.14376 2.79901 4.12384 2.81173L4.10392 2.85626C4.09064 2.85626 4.07072 2.87534 4.05743 2.87534L4.09064 2.90079L4.084 3.14886C4.09064 3.1425 4.17032 3.14886 4.22345 3.20611C4.23673 3.28244 4.28322 3.37149 4.28986 3.38422C4.2965 3.39058 4.31642 3.4033 4.33634 3.42238C4.40275 3.47327 4.41603 3.47963 4.40939 3.48599V3.49871ZM4.14376 3.26336C4.07072 3.26336 3.98439 3.24428 3.95782 3.23792C3.92462 3.23156 3.88478 3.1425 3.88478 3.09798C3.85157 3.07253 3.85157 3.02165 3.86486 2.98348C3.85157 3.00256 3.83165 3.01528 3.80509 3.01528C3.79181 3.05345 3.73204 3.09798 3.73204 3.09798C3.73204 3.09798 3.71876 3.12342 3.7254 3.13614L3.75197 3.18703L3.71212 3.21883L3.66564 3.18703L3.69884 3.20611L3.7254 3.17431C3.71876 3.12342 3.73204 3.09798 3.73204 3.09162C3.73204 3.09162 3.79181 3.04709 3.79845 3.00892C3.84493 3.00892 3.86486 2.98348 3.87814 2.9644V2.97076C3.87814 2.9644 3.88478 2.9644 3.88478 2.95804C3.88478 2.9644 3.87814 2.97076 3.8715 2.97712C3.85822 3.00892 3.86486 3.06617 3.89142 3.09162C3.89806 3.13614 3.9379 3.21883 3.95782 3.22519C3.99103 3.23155 4.09064 3.257 4.1504 3.257C4.1504 3.26336 4.1504 3.26336 4.14376 3.26336Z" fill="#000A22"/>
<path d="M3.7785 2.79264C3.79178 2.76084 3.84491 2.76084 3.84491 2.76084C3.84491 2.76084 3.86483 2.71631 3.93124 2.74175C3.9578 2.72267 4.02421 2.74811 4.02421 2.74811C4.02421 2.74811 4.05077 2.71631 4.08397 2.71631C4.14374 2.72267 4.15702 2.77992 4.15038 2.78628C4.11718 2.79264 4.05741 2.76084 4.01093 2.7672C3.98436 2.77992 3.94452 2.799 3.9246 2.81808C3.88475 2.83081 3.84491 2.79264 3.7785 2.79264Z" fill="#91857C"/>
<path d="M3.92461 2.83081C3.90469 2.83081 3.89141 2.82444 3.87148 2.81808C3.84492 2.80536 3.81836 2.799 3.78516 2.799C3.81836 2.79264 3.84492 2.80536 3.87148 2.81172C3.89141 2.81808 3.91133 2.82445 3.92461 2.82445V2.83081L3.93125 2.82445C3.93789 2.81172 3.96445 2.799 3.99102 2.78628L4.0375 2.77356C4.05742 2.77356 4.07734 2.77992 4.09727 2.78628C4.11719 2.79264 4.13047 2.79264 4.14375 2.79264C4.13711 2.74811 4.11719 2.73539 4.09063 2.72903C4.05078 2.73539 4.0375 2.75447 4.0375 2.75447C4.03086 2.75447 3.99766 2.74175 3.96445 2.74175H3.89805C3.86484 2.74175 3.8582 2.7672 3.8582 2.7672C3.83828 2.7672 3.80508 2.77356 3.7918 2.79264C3.79844 2.76084 3.83828 2.76084 3.84492 2.76084C3.84492 2.76084 3.87813 2.71631 3.93789 2.74175C3.99102 2.73539 4.02422 2.74811 4.03086 2.74811C4.03086 2.74811 4.05078 2.71631 4.08398 2.71631C4.12383 2.72267 4.14375 2.74175 4.15039 2.75447L4.15703 2.79264C4.12383 2.799 4.11055 2.79264 4.09063 2.78628C4.0707 2.77992 4.05078 2.77356 4.03086 2.77356L3.99102 2.78628C3.97109 2.799 3.94453 2.80536 3.93125 2.82445L3.92461 2.83081Z" fill="#000A22"/>
<path d="M3.90473 2.85007C3.91801 2.84371 3.95785 2.82463 3.98442 2.84371C4.01098 2.86916 4.05082 2.8946 4.05082 2.8946L4.09731 2.91368L4.11723 2.9264L4.10395 3.12995C4.0641 3.08543 4.01762 3.07907 3.99106 3.02818C3.97114 3.0091 3.98442 2.95821 3.95785 2.92004C3.93129 2.8946 3.89809 2.86916 3.90473 2.85007Z" fill="#91857C"/>
<path d="M4.1105 3.14226C4.08393 3.11682 4.07065 3.11046 4.05073 3.09774C4.02417 3.07865 4.00425 3.06593 3.98432 3.03413C3.97768 3.02141 3.97768 3.00868 3.97104 2.9896C3.97104 2.97052 3.9644 2.94508 3.95112 2.92599C3.90464 2.88147 3.89136 2.86238 3.898 2.8433C3.90464 2.83694 3.9312 2.82422 3.95112 2.82422C3.95776 2.83058 3.97104 2.83694 3.97768 2.83694C3.93784 2.83058 3.91792 2.83694 3.90464 2.8433C3.90464 2.85602 3.91792 2.86875 3.93784 2.88783C3.97768 2.93235 3.97768 2.9578 3.98432 2.98324C3.98432 3.00232 3.99096 3.01505 3.99761 3.02141C4.01753 3.05321 4.03745 3.06593 4.06401 3.07865C4.07729 3.09138 4.09057 3.09774 4.1105 3.11046L4.11714 3.04685V3.12318L4.1105 3.14226Z" fill="#000A22"/>
<path d="M4.01758 2.90712C4.01758 2.90712 4.04414 2.90076 4.05078 2.90712C4.05742 2.90712 4.0707 2.91349 4.0707 2.91985C4.07734 2.91985 4.08398 2.92621 4.08398 2.93257C4.09063 2.93257 4.09727 2.95165 4.09727 2.95165L4.09062 2.96437C4.09062 2.96437 4.08398 2.95801 4.07734 2.94529C4.0707 2.94529 4.05742 2.93893 4.05742 2.93257C4.04414 2.93257 4.0375 2.92621 4.0375 2.91985C4.03086 2.91985 4.01758 2.90712 4.01758 2.90712Z" fill="#91857C"/>
<path d="M4.22345 2.77358C4.21017 2.76085 4.18361 2.76722 4.18361 2.76722L4.1172 2.87535L4.09064 2.90079V2.98349L4.1172 3.06618L4.11056 3.12979C4.11056 3.12979 4.14376 3.09798 4.1504 3.08526C4.15704 3.06618 4.13712 3.01529 4.13712 3.01529C4.13712 3.01529 4.1172 2.98349 4.14376 2.92624C4.15704 2.86263 4.21681 2.81174 4.22345 2.77358Z" fill="#91857C"/>
<path d="M4.10391 3.13602L4.11055 3.06605L4.08398 2.98972V2.90067L4.11719 2.87522L4.18359 2.76709L4.23008 2.77345C4.22344 2.79253 4.21016 2.81798 4.19023 2.83706C4.17031 2.8625 4.15039 2.89431 4.13711 2.92611C4.11719 2.98336 4.13047 3.01517 4.13047 3.01517C4.13047 3.02153 4.14375 3.07241 4.14375 3.08513C4.13711 3.10422 4.10391 3.12966 4.10391 3.13602ZM4.22344 2.77345L4.12383 2.88159L4.09062 2.98972L4.11719 3.06605L4.11055 3.11694C4.12383 3.10422 4.13711 3.0915 4.13711 3.07877C4.13711 3.06605 4.13047 3.02789 4.12383 3.01517C4.12383 3.01517 4.10391 2.98336 4.13047 2.91975C4.14375 2.88795 4.16367 2.85614 4.18359 2.8307C4.20352 2.80526 4.2168 2.78617 4.22344 2.77345Z" fill="#000A22"/>
<path d="M4.38946 2.86865C4.38946 2.86865 4.28985 3.00859 4.1172 3.05948C4.07071 3.0722 4.09064 2.9577 4.09064 2.9577H4.07735C4.07735 2.9577 4.05079 3.0722 4.11056 3.0722C4.27657 3.0404 4.40938 2.86865 4.40938 2.86865H4.38946Z" fill="#91857C"/>
<path d="M4.11049 3.07856L4.07729 3.06584C4.05073 3.03403 4.07065 2.96407 4.07065 2.96407C4.07065 2.97043 4.07729 2.97043 4.07729 2.97679C4.07065 3.00223 4.07065 3.0404 4.08393 3.06584L4.11049 3.07856V3.0722C4.22338 3.05312 4.31635 2.96407 4.36948 2.91318C4.32963 2.96407 4.23002 3.05312 4.11049 3.07856ZM4.11713 3.06584C4.11049 3.05948 4.10385 3.05948 4.10385 3.05312C4.28315 3.00859 4.38276 2.86865 4.38276 2.86865C4.3894 2.86865 4.3894 2.88137 4.38276 2.88774C4.34291 2.93226 4.24994 3.02767 4.11713 3.06584Z" fill="#000A22"/>
<path d="M4.45586 3.67668C4.45586 3.67668 4.44258 3.68941 4.42266 3.67668C4.40937 3.65124 4.38281 3.65124 4.38281 3.65124C4.38281 3.65124 4.36289 3.60035 4.33633 3.61307C4.32969 3.58763 4.30312 3.60035 4.30312 3.60035C4.30312 3.60035 4.30312 3.56219 4.26328 3.56855C4.27656 3.52402 4.21016 3.53038 4.21016 3.53038C4.21016 3.53038 4.21016 3.4795 4.11719 3.49222C4.31641 3.40316 4.47578 3.6258 4.47578 3.6258L4.45586 3.67668Z" fill="#91857C"/>
<path d="M4.42264 3.68287C4.40936 3.65743 4.3828 3.65743 4.3828 3.65743C4.37616 3.65743 4.36952 3.62562 4.3496 3.61926H4.34296L4.28983 3.60018H4.28319L4.24999 3.56202C4.23671 3.52385 4.2035 3.52385 4.2035 3.52385C4.1703 3.48569 4.14374 3.47932 4.11053 3.48568C4.30975 3.39027 4.47577 3.6129 4.47577 3.6129C4.48241 3.61926 4.36288 3.4666 4.2035 3.4666C4.17694 3.4666 4.14374 3.47296 4.11053 3.48568C4.14374 3.47296 4.17694 3.47932 4.19022 3.49205C4.2035 3.51749 4.23671 3.51749 4.24999 3.53021L4.31639 3.58746C4.36288 3.60654 4.37616 3.63835 4.37616 3.63835C4.38944 3.65107 4.416 3.65107 4.42264 3.68287H4.46249H4.42264Z" fill="#000A22"/>
<path d="M4.55546 3.6958C4.55546 3.6958 4.60195 3.74669 4.62851 3.74669C4.65507 3.74669 4.65507 3.6958 4.65507 3.6958C4.65507 3.6958 4.66171 3.71488 4.675 3.70852C4.675 3.72124 4.68828 3.72761 4.68828 3.72761C4.68828 3.72761 4.64843 3.82302 4.5289 3.73397L4.55546 3.6958Z" fill="#91857C"/>
<path d="M4.61525 3.77849C4.58868 3.77849 4.55548 3.76577 4.52228 3.74033C4.56876 3.76577 4.60197 3.77849 4.63517 3.77213C4.66837 3.76577 4.68165 3.73397 4.68165 3.73397L4.65509 3.70216C4.65509 3.71488 4.64845 3.75305 4.62189 3.75305C4.59532 3.75305 4.55548 3.70852 4.54884 3.70216L4.55548 3.6958C4.56876 3.70852 4.61525 3.73397 4.62189 3.74669C4.63517 3.74669 4.64181 3.71488 4.64181 3.70216H4.64845H4.65509C4.65509 3.70216 4.65509 3.70216 4.65509 3.70852L4.68829 3.74033C4.68829 3.74033 4.67501 3.77213 4.63517 3.78485C4.62853 3.77849 4.62189 3.77849 4.61525 3.77849Z" fill="#000A22"/>
<path d="M4.1902 3.71487L4.17028 3.77848C4.17028 3.77848 4.15035 3.79756 4.15699 3.79756C4.16364 3.80392 4.19684 3.7912 4.19684 3.7912C4.19684 3.7912 4.24996 3.78484 4.26324 3.77212C4.27653 3.79756 4.29645 3.79756 4.29645 3.79756V3.78484C4.30973 3.78484 4.31637 3.78484 4.31637 3.78484C4.31637 3.78484 4.32301 3.76576 4.30973 3.7594C4.30973 3.74668 4.31637 3.73395 4.29645 3.73395C4.27653 3.75304 4.23004 3.77212 4.2234 3.76576C4.21012 3.7594 4.26989 3.73395 4.24996 3.70215L4.1902 3.71487Z" fill="#91857C"/>
<path d="M4.15704 3.8039L4.19025 3.71484H4.19689L4.17697 3.77845C4.21017 3.78481 4.25001 3.77845 4.26329 3.77209L4.2965 3.79754L4.30978 3.75937L4.32306 3.78481C4.31642 3.79117 4.30978 3.79754 4.2965 3.79754H4.30314H4.2965C4.27657 3.79754 4.26993 3.79118 4.26329 3.77845C4.25665 3.79754 4.20353 3.8039 4.20353 3.8039H4.15704Z" fill="#000A22"/>
<path d="M3.14101 3.56204L3.20742 3.54932L3.20078 3.51752C3.20078 3.51116 3.19413 3.5048 3.19413 3.5048C3.18749 3.5048 3.18085 3.5048 3.17421 3.5048V3.49844L3.23398 3.48571V3.49208C3.22734 3.49208 3.2207 3.49844 3.2207 3.49844L3.21406 3.5048C3.21406 3.5048 3.21406 3.51116 3.21406 3.51752L3.2207 3.54932L3.27382 3.5366C3.28046 3.5366 3.2871 3.53024 3.29374 3.53024C3.29374 3.53024 3.29374 3.52388 3.30038 3.52388C3.30038 3.51752 3.30038 3.51752 3.30038 3.51116V3.5048H3.30703L3.32695 3.57477H3.32031V3.56841C3.32031 3.56205 3.31367 3.55568 3.30703 3.55568C3.30703 3.55568 3.29374 3.55568 3.2871 3.55568L3.17421 3.58113C3.16757 3.58113 3.16093 3.58749 3.15429 3.58749C3.15429 3.58749 3.15429 3.58749 3.14765 3.59385C3.14765 3.60021 3.14765 3.60021 3.14765 3.60657V3.61293H3.14101L3.10781 3.49208L3.14765 3.47935V3.48571C3.14101 3.49208 3.13437 3.49208 3.13437 3.49844C3.13437 3.5048 3.12773 3.5048 3.12773 3.51116C3.12773 3.51752 3.12773 3.52388 3.12773 3.53024L3.14101 3.56204ZM3.10117 3.2758C3.10117 3.25672 3.11445 3.23764 3.12773 3.21856C3.14765 3.20584 3.16757 3.19947 3.19413 3.19947C3.2207 3.19947 3.24062 3.2122 3.26054 3.22492C3.27382 3.244 3.2871 3.26308 3.28046 3.28217C3.28046 3.30761 3.26718 3.32669 3.2539 3.33941C3.23398 3.35214 3.21406 3.3585 3.18749 3.3585C3.16093 3.3585 3.13437 3.34577 3.12109 3.32669C3.10781 3.31397 3.10117 3.29489 3.10117 3.2758ZM3.10781 3.2758C3.10781 3.28853 3.11445 3.30125 3.12109 3.31397C3.13437 3.32669 3.15429 3.33305 3.18085 3.33305C3.20742 3.33305 3.23398 3.33305 3.24726 3.32033C3.26054 3.31397 3.26718 3.30125 3.26718 3.28853C3.26718 3.2758 3.26054 3.25672 3.24726 3.25036C3.23398 3.23764 3.21406 3.23128 3.18749 3.23128C3.15429 3.23128 3.13437 3.23128 3.12109 3.244C3.11445 3.25036 3.10781 3.26308 3.10781 3.2758ZM3.36015 2.97048L3.34687 3.01501L3.24726 3.04045C3.24726 3.04681 3.24726 3.04681 3.24062 3.05317C3.24062 3.05317 3.24062 3.05317 3.24062 3.05953C3.24062 3.05953 3.24062 3.05953 3.24062 3.0659L3.2871 3.08498C3.30038 3.09134 3.30703 3.09134 3.30703 3.09134C3.31367 3.09134 3.31367 3.08498 3.32031 3.07862V3.07226H3.32695L3.30038 3.14223H3.29374V3.13587C3.29374 3.1295 3.29374 3.12314 3.29374 3.11678C3.29374 3.11678 3.2871 3.11042 3.27382 3.11042L3.16757 3.07226C3.15429 3.0659 3.14765 3.0659 3.14765 3.0659C3.14101 3.0659 3.14101 3.07226 3.13437 3.07862V3.08498H3.12773L3.14765 3.02773C3.15429 3.00865 3.16093 3.00229 3.16757 2.98956C3.17421 2.9832 3.18085 2.97684 3.18749 2.97684C3.19413 2.97684 3.20742 2.97684 3.21406 2.97684C3.22734 2.9832 3.23398 2.98957 3.23398 2.99593C3.24062 3.00229 3.24062 3.01501 3.24062 3.03409L3.30038 3.02137C3.31367 3.01501 3.32031 3.01501 3.32695 3.00865C3.34687 2.9832 3.35351 2.97684 3.36015 2.97048ZM3.23398 3.05317C3.23398 3.04681 3.23398 3.04681 3.23398 3.05317C3.23398 3.04681 3.23398 3.04681 3.23398 3.04681C3.24062 3.03409 3.24062 3.02137 3.24062 3.00865C3.23398 2.99593 3.22734 2.98956 3.2207 2.98956C3.20742 2.9832 3.20078 2.9832 3.19413 2.98956C3.18749 2.99593 3.18085 3.00229 3.17421 3.00865C3.17421 3.01501 3.17421 3.02137 3.16757 3.02773L3.23398 3.05317ZM3.60585 2.49342L3.63906 2.53794H3.63242C3.61913 2.53158 3.61249 2.52522 3.59921 2.52522C3.58593 2.52522 3.57265 2.52522 3.55937 2.53158C3.53945 2.5443 3.53281 2.55702 3.53281 2.58247C3.53281 2.60155 3.53945 2.61427 3.54609 2.63336C3.55273 2.64608 3.56601 2.6588 3.57929 2.66516C3.59257 2.67152 3.60585 2.67788 3.61913 2.67788C3.63242 2.67788 3.63906 2.67152 3.65234 2.67152C3.65898 2.66516 3.66562 2.66516 3.66562 2.6588C3.67226 2.65244 3.67226 2.64608 3.6789 2.64608L3.65234 2.60791C3.6457 2.60155 3.6457 2.59519 3.63906 2.59519H3.63242C3.63242 2.59519 3.62578 2.59519 3.61913 2.60155V2.59519L3.6789 2.55702V2.56339C3.67226 2.56975 3.67226 2.56975 3.67226 2.57611C3.67226 2.58247 3.67226 2.58247 3.6789 2.59519L3.70546 2.63972C3.69882 2.64608 3.69218 2.6588 3.68554 2.66516C3.6789 2.67152 3.67226 2.67788 3.65898 2.68424C3.63242 2.70332 3.60585 2.70333 3.57929 2.69696C3.55937 2.6906 3.54609 2.67788 3.53281 2.66516C3.52617 2.65244 3.51953 2.63972 3.51953 2.62699C3.51953 2.60791 3.51953 2.59519 3.52617 2.57611C3.53281 2.56339 3.54609 2.55066 3.55937 2.5443C3.56601 2.53794 3.57265 2.53794 3.57265 2.53794C3.57929 2.53794 3.58593 2.53158 3.59257 2.53158C3.59921 2.53158 3.59921 2.53158 3.59921 2.53158C3.59921 2.53158 3.59921 2.53158 3.59921 2.52522C3.60585 2.50614 3.60585 2.49978 3.60585 2.49342ZM3.8914 2.5125L3.82499 2.53158L3.81835 2.55702C3.81835 2.56338 3.81835 2.56975 3.81835 2.56975C3.81835 2.56975 3.81835 2.57611 3.82499 2.57611C3.82499 2.57611 3.83163 2.57611 3.84492 2.57611V2.58247L3.79179 2.59519V2.58883C3.79843 2.58883 3.80507 2.58247 3.80507 2.58247C3.80507 2.57611 3.81171 2.56975 3.81171 2.55702L3.83163 2.41072H3.83828L3.93124 2.53158C3.93788 2.5443 3.94453 2.5443 3.95117 2.55066C3.95781 2.55066 3.96445 2.55066 3.97109 2.55066V2.55702L3.90468 2.57611V2.56975C3.91132 2.56975 3.91796 2.56339 3.91796 2.56339V2.55702C3.91796 2.55066 3.91132 2.55066 3.91132 2.5443L3.8914 2.5125ZM3.88476 2.50614L3.83828 2.44889L3.82499 2.51886L3.88476 2.50614ZM4.19687 2.50614L4.18359 2.55066L4.05078 2.5443V2.53794H4.05742C4.06406 2.53794 4.0707 2.53794 4.0707 2.53158C4.0707 2.53158 4.0707 2.52522 4.07734 2.5125L4.08398 2.40436C4.08398 2.39164 4.08398 2.38528 4.08398 2.38528C4.08398 2.37892 4.07734 2.37892 4.0707 2.37892H4.05078V2.37256H4.13046V2.37892C4.12382 2.37892 4.11718 2.37892 4.11054 2.37892C4.1039 2.37892 4.1039 2.38528 4.1039 2.38528C4.1039 2.38528 4.1039 2.39164 4.1039 2.40436L4.09726 2.5125C4.09726 2.51886 4.09726 2.52522 4.09726 2.52522C4.09726 2.52522 4.09726 2.52522 4.1039 2.53158C4.1039 2.53158 4.11054 2.53158 4.12382 2.53158H4.1371C4.15038 2.53158 4.15703 2.53158 4.16367 2.53158C4.17031 2.53158 4.17695 2.52522 4.17695 2.51886C4.18359 2.52522 4.19023 2.51886 4.19687 2.50614ZM4.42929 2.56339L4.40273 2.60155L4.27656 2.56339V2.55702H4.2832C4.28984 2.55702 4.29648 2.55702 4.30312 2.55702C4.30312 2.55702 4.30976 2.55066 4.30976 2.53794L4.34296 2.43617C4.3496 2.42345 4.3496 2.41708 4.34296 2.41708C4.34296 2.41072 4.33632 2.41072 4.32968 2.40436H4.32304V2.398L4.39609 2.42345V2.42981C4.38945 2.42981 4.38281 2.42345 4.37617 2.42981C4.36953 2.42981 4.36953 2.42981 4.36953 2.43617C4.36953 2.43617 4.36288 2.44253 4.36288 2.45525L4.32968 2.55702C4.32968 2.56338 4.32968 2.56975 4.32968 2.56975V2.57611C4.32968 2.57611 4.33632 2.58247 4.3496 2.58247L4.36288 2.58883C4.37617 2.59519 4.38281 2.59519 4.38945 2.59519C4.39609 2.59519 4.40273 2.59519 4.40937 2.58883C4.41601 2.58247 4.42265 2.57611 4.42929 2.56339ZM4.61523 2.6588L4.5621 2.62063L4.53554 2.63336C4.5289 2.63972 4.52226 2.63972 4.52226 2.64608V2.65244C4.52226 2.65244 4.5289 2.6588 4.53554 2.66516V2.67152L4.48906 2.63972V2.63336C4.4957 2.63336 4.50234 2.63972 4.50234 2.63972C4.50898 2.63972 4.51562 2.63336 4.5289 2.62699L4.66171 2.55066H4.66835L4.63515 2.69696C4.63515 2.70969 4.62851 2.71605 4.63515 2.72241C4.63515 2.72877 4.64179 2.72877 4.64843 2.73513V2.74149L4.59531 2.70332V2.69696C4.60195 2.70333 4.60859 2.70332 4.60859 2.70332C4.60859 2.70332 4.61523 2.70333 4.61523 2.69696C4.61523 2.69696 4.62187 2.6906 4.62187 2.67788L4.61523 2.6588ZM4.62187 2.65244L4.64179 2.58247L4.57539 2.62063L4.62187 2.65244ZM4.82773 2.6906L4.85429 2.72877L4.81445 2.88779L4.89414 2.83054C4.90078 2.82418 4.90742 2.81782 4.90742 2.81782C4.90742 2.81146 4.90742 2.8051 4.90078 2.8051L4.89414 2.79874H4.90078L4.93398 2.84326H4.92734L4.9207 2.8369C4.91406 2.83054 4.91406 2.83054 4.90742 2.83054C4.90742 2.83054 4.90078 2.83054 4.88749 2.8369L4.76796 2.9196V2.91323L4.81445 2.74149L4.72812 2.8051C4.72148 2.81146 4.71484 2.81782 4.71484 2.81782C4.71484 2.82418 4.71484 2.83054 4.72148 2.83054L4.72812 2.8369H4.72148L4.68828 2.79238H4.69492L4.70156 2.79874C4.7082 2.8051 4.7082 2.8051 4.71484 2.8051C4.72148 2.8051 4.72148 2.8051 4.73476 2.79874L4.83437 2.72877C4.83437 2.72241 4.83437 2.71605 4.83437 2.70969C4.83437 2.70969 4.83437 2.70333 4.83437 2.69696C4.82773 2.69696 4.82773 2.69696 4.82773 2.6906ZM5.04687 3.07862L5.00703 3.09134V3.08498C5.01367 3.08498 5.02031 3.07862 5.02031 3.07862C5.02695 3.07226 5.02695 3.07226 5.02695 3.0659C5.02695 3.05953 5.02695 3.05317 5.02695 3.04681L5.02031 3.02137L4.89414 3.0659C4.88085 3.07226 4.88085 3.07226 4.87421 3.07862C4.87421 3.08498 4.87421 3.08498 4.87421 3.09134V3.0977H4.86757L4.84101 3.02773H4.84765V3.03409C4.84765 3.04045 4.85429 3.04681 4.86093 3.04681C4.86093 3.04681 4.86757 3.04681 4.88085 3.04045L5.00703 2.99593L5.00039 2.97684C5.00039 2.97048 4.99374 2.96412 4.99374 2.96412C4.99374 2.95776 4.9871 2.95776 4.98046 2.95776C4.97382 2.95776 4.96718 2.95776 4.96054 2.95776V2.9514L5.00039 2.93868L5.04687 3.07862ZM4.90742 3.37758V3.33305L4.9871 3.26944C4.9871 3.26308 4.9871 3.26308 4.9871 3.25672C4.9871 3.25672 4.9871 3.25672 4.9871 3.25036C4.9871 3.25036 4.9871 3.25036 4.9871 3.244H4.93398C4.9207 3.244 4.91406 3.244 4.91406 3.25036C4.90742 3.25036 4.90742 3.25672 4.90742 3.26308V3.26944H4.90078L4.89414 3.19947H4.90078V3.20584C4.90078 3.2122 4.90078 3.21856 4.90742 3.21856C4.90742 3.21856 4.91406 3.21856 4.92734 3.21856L5.04023 3.2122C5.05351 3.2122 5.06015 3.2122 5.06015 3.20584C5.06679 3.19947 5.06679 3.19947 5.06679 3.19311V3.18675H5.07343V3.25036C5.07343 3.26944 5.07343 3.28217 5.07343 3.28853C5.07343 3.29489 5.06679 3.30125 5.06015 3.30761C5.05351 3.31397 5.04687 3.32033 5.03359 3.32033C5.02031 3.32033 5.01367 3.32033 5.00703 3.31397C5.00039 3.30761 4.99374 3.29489 4.9871 3.28217L4.94062 3.32033C4.92734 3.32669 4.9207 3.33305 4.9207 3.33941C4.91406 3.3585 4.91406 3.36486 4.90742 3.37758ZM4.99374 3.25036C4.99374 3.25036 4.99374 3.25672 4.99374 3.25036C4.99374 3.25672 4.99374 3.25672 4.99374 3.25672C4.99374 3.2758 5.00039 3.28217 5.00703 3.29489C5.01367 3.30125 5.02695 3.30761 5.03359 3.30761C5.04687 3.30761 5.05351 3.30125 5.06015 3.29489C5.06679 3.28853 5.06679 3.28217 5.06679 3.26944C5.06679 3.26308 5.06679 3.25672 5.06679 3.25036H4.99374ZM5.04023 3.59385L5.02695 3.6511H5.02031C5.02031 3.6511 5.02031 3.64474 5.02031 3.63838C5.02031 3.63201 5.02031 3.63201 5.01367 3.62565C5.01367 3.61929 5.00703 3.61293 5.00039 3.60657L4.94726 3.54932L4.90742 3.5366C4.89414 3.5366 4.88749 3.5366 4.88749 3.5366C4.88085 3.5366 4.88085 3.54296 4.88085 3.54932V3.55568H4.87421L4.89414 3.48571H4.90078V3.49208C4.90078 3.49844 4.90078 3.5048 4.90078 3.51116C4.90078 3.51116 4.90742 3.51752 4.9207 3.51752L4.96054 3.53024L5.04687 3.5048C5.06015 3.49844 5.06015 3.49844 5.06679 3.49844C5.06679 3.49844 5.07343 3.49208 5.08007 3.48571V3.47935H5.08671L5.06679 3.54932H5.06015V3.54296C5.06015 3.5366 5.06015 3.5366 5.06015 3.53024C5.06015 3.52388 5.06015 3.52388 5.05351 3.52388C5.05351 3.52388 5.04687 3.52388 5.03359 3.52388L4.96718 3.54296L5.01367 3.58749C5.02031 3.59385 5.02695 3.60021 5.02695 3.60021H5.03359C5.03359 3.60021 5.04023 3.60021 5.04023 3.59385C5.03359 3.60021 5.03359 3.60021 5.04023 3.59385Z" fill="#000A22"/>
</svg>
