<svg width="34" height="19" viewBox="0 0 34 19" fill="none" xmlns="http://www.w3.org/2000/svg">
<path d="M34 0H0V19H34V0Z" fill="#EFDA29"/>
<path d="M11.3355 0H0V19H11.3355V0Z" fill="#363795"/>
<path d="M34 0H22.6644V19H34V0Z" fill="#D12028"/>
<path d="M15.8644 4.24902C15.7914 4.24902 15.7316 4.26811 15.6984 4.29355C15.7582 4.30627 15.798 4.35716 15.798 4.42077V4.57343H15.7383H15.6387C15.5723 4.57343 15.5258 4.53526 15.5059 4.47802C15.4793 4.50982 15.4594 4.57343 15.4594 4.63704C15.4594 4.70701 15.4793 4.76426 15.5059 4.79606C15.5191 4.73881 15.5723 4.70065 15.6387 4.70065H15.7383H15.798V4.7579V5.24132V5.44487C15.798 5.50212 15.7582 5.55301 15.7051 5.57209C15.7848 5.58481 15.8512 5.68022 15.8644 5.73747C15.8844 5.68659 15.9508 5.58481 16.0238 5.57209C15.9707 5.55301 15.9309 5.50848 15.9309 5.44487V5.09502V4.7579V4.70065H15.9906H16.0902C16.1566 4.70065 16.2031 4.73881 16.223 4.79606C16.2496 4.76426 16.2695 4.70065 16.2695 4.63704C16.2695 4.56707 16.2496 4.50982 16.223 4.47802C16.2098 4.53526 16.1566 4.57343 16.0902 4.57343H15.9906H15.9309V4.42077C15.9309 4.36352 15.9707 4.31263 16.0305 4.29355C15.9973 4.26811 15.9309 4.24902 15.8644 4.24902Z" fill="#000A22"/>
<path d="M15.8645 4.28076C15.8246 4.28076 15.7981 4.28712 15.7715 4.29348C15.8047 4.32529 15.8313 4.36981 15.8313 4.41434V4.567V4.57336V4.59881H15.8047H15.7981H15.7781H15.7316H15.632C15.5789 4.59881 15.5324 4.57336 15.5059 4.54156C15.4992 4.567 15.4859 4.59881 15.4859 4.63061C15.4859 4.66242 15.4926 4.69422 15.4992 4.71966C15.5324 4.68786 15.5789 4.66242 15.6254 4.66242H15.725H15.7449H15.7848H15.818C15.818 4.66878 15.818 4.66878 15.818 4.67514V4.69422V4.70058V4.75783V5.24126V5.44481C15.818 5.49569 15.7914 5.53386 15.7582 5.5593C15.7848 5.57202 15.8047 5.59111 15.8246 5.61019C15.8379 5.62927 15.8445 5.64835 15.8578 5.66744C15.8711 5.64835 15.8777 5.62927 15.891 5.61019C15.9109 5.59111 15.9309 5.57202 15.9508 5.5593C15.9176 5.5275 15.891 5.48933 15.891 5.44481V5.09496V4.75783V4.75147V4.70058V4.66878H15.9176H15.9242H15.984H16.0836C16.1367 4.66878 16.1832 4.69422 16.2098 4.72602C16.2164 4.70058 16.2297 4.66878 16.2297 4.63697C16.2297 4.60517 16.2231 4.57336 16.2164 4.54792C16.1832 4.57972 16.1367 4.60517 16.0902 4.60517H15.9906H15.9309H15.9242H15.8977V4.57972V4.57336V4.4207C15.8977 4.36981 15.9176 4.33165 15.9574 4.29984C15.9309 4.28712 15.8977 4.28076 15.8645 4.28076Z" fill="#F3EB38"/>
<path d="M15.984 6.98423L15.7184 6.92062L15.1605 6.64074L14.802 6.62166L14.782 5.96649L14.1047 5.4449L13.4074 6.15732L13.3145 6.36723L13.341 12.8744L13.7926 12.3592L13.8855 12.3783L14.3437 11.9012L14.7422 10.9534L14.8551 10.5591L15.3863 11.157L15.1871 11.5132L15.3664 11.5005L15.3797 11.6468L15.5523 11.5768L15.5922 11.7803L15.9641 11.4241L16.4754 11.6659L15.5059 13.326L15.1605 13.5741L15.7848 13.7968L16.4223 13.0843L16.3293 13.5487L16.1367 14.0067L16.9203 14.4392L17.7637 13.9558L17.352 13.1225L17.4848 13.0589L18.0359 13.8222L18.6336 13.5423L17.8566 12.6709L17.3453 11.6213L17.8832 11.4496L18.2484 11.7867L18.3016 11.5704L18.5008 11.6595L18.4742 11.475L18.6668 11.5196L18.4344 11.157L19.032 10.6672L19.4172 11.8122L19.9816 12.4292L20.1012 12.4164L20.5062 12.8999V6.19548L19.7492 5.43217L19.0187 6.00465L19.0453 6.62166L18.7199 6.63438L18.2285 6.8761L17.9496 6.96515L17.8234 6.98423L17.6574 6.81249L17.4316 6.37995L17.4117 5.95377L17.5512 5.67389L17.5246 5.41309H17.6508L17.5711 5.23499L17.684 5.19682L17.518 5.05688L17.5777 4.99327L16.9535 4.73248L16.4754 4.70703L16.3492 4.75792L16.2895 4.86605L16.4156 5.20954L16.2762 5.33676L16.409 5.58484L16.4156 6.13187L16.3094 6.58986L16.0969 6.93971L15.984 6.98423Z" fill="#816432"/>
<path d="M15.2668 11.5196L14.7953 12.2066L14.5695 12.2002L14.3371 12.3083L14.2574 12.55L14.2906 12.6645L14.5496 12.9317L14.7555 12.8172L14.9215 12.6455L14.9613 12.4928L15.559 11.7549L15.5258 11.5705L15.3996 11.6468L15.3465 11.4941L15.2668 11.5196Z" fill="#C1202D"/>
<path d="M18.2683 11.7295L18.8992 12.5373L18.959 12.6964L19.2312 12.9381L19.3176 12.919L19.623 12.5819L19.55 12.3465L19.2711 12.1811L19.0519 12.2002L18.5805 11.5196L18.4941 11.4878L18.4609 11.6214L18.3215 11.5832L18.2683 11.7295Z" fill="#C1202D"/>
<path d="M16.6215 4.66895C16.5418 4.66895 16.4289 4.66895 16.3625 4.71347C16.3027 4.75164 16.3027 4.80252 16.2828 4.82161C16.2297 4.86613 16.1434 4.85977 16.1035 4.85977C15.8312 4.85977 15.8246 5.13965 15.8246 5.13965C15.8246 5.13965 15.891 5.03788 16.0172 5.03788C16.223 5.03788 16.3758 5.14601 16.3758 5.18418C16.3758 5.20326 16.3559 5.20326 16.3559 5.20326C16.223 5.20326 16.0238 5.12693 15.9176 5.12693V5.16509C15.9176 5.16509 15.9176 5.16509 15.9242 5.17146C15.9242 5.17146 15.9242 5.17146 15.9176 5.17146V5.17782C16.1566 5.26051 16.3957 5.36864 16.3957 5.86479C16.3957 6.17648 16.3559 6.49452 16.1965 6.7426C16.1367 6.83165 16.057 6.90798 15.9574 6.97159C15.9109 6.95887 15.7051 6.89526 15.5656 6.81893C15.3133 6.68535 15.1805 6.54541 14.875 6.53269V6.31642C14.875 6.19556 14.9215 6.09379 14.9215 5.97929C14.7953 5.94749 14.4367 5.53403 14.1113 5.34956C13.6332 5.64852 13.2613 6.13831 13.2613 6.36094C13.2613 6.36094 13.2746 11.2016 13.2613 12.8872C13.2613 12.9826 13.2016 13.1226 13.2016 13.1226C13.3742 13.0526 13.6996 12.6264 13.766 12.4674V12.5437C14.0316 12.4292 14.2242 12.1239 14.3105 11.9649C14.3105 11.9903 14.3172 12.0476 14.3172 12.0476C14.5562 11.8504 14.8551 10.6736 14.8551 10.6736L14.8418 10.4256C14.8418 10.4256 14.6359 11.3861 14.3969 11.5832V7.44866L14.5828 7.61404L14.8684 7.3596V7.16242L14.616 7.39141V6.80621C14.6559 6.74896 14.6824 6.71079 14.6957 6.67899C14.7355 6.74896 14.8684 6.95887 15.0211 7.08609C15.0476 6.98431 15.2137 6.8889 15.2137 6.8889C15.2137 6.8889 15.2734 7.04792 15.3664 7.08609C15.3996 7.02884 15.5922 6.90798 15.5922 6.90798C15.5922 6.90798 15.4262 6.93343 15.3598 6.99067C15.3 6.97795 15.2867 6.76168 15.2867 6.76168C15.2867 6.76168 15.041 6.87618 15.0012 6.95887C14.9547 6.94615 14.8816 6.7744 14.8551 6.69807C14.8949 6.69171 14.9547 6.68535 15.0344 6.68535C15.1008 6.68535 15.1937 6.71715 15.2867 6.76168C15.3863 6.80621 15.4926 6.86345 15.5922 6.90798C15.7117 6.95887 15.8976 6.97159 15.9508 6.97159C15.891 7.00976 15.818 7.05428 15.7449 7.08609C15.7449 7.08609 16.0371 7.08609 16.243 6.98431C16.316 6.93979 16.3891 6.89526 16.4555 6.84437C16.4289 6.9207 16.3824 7.00976 16.316 7.08609C16.6148 7.06064 16.7676 6.89526 16.8074 6.84437C16.8273 6.89526 16.8605 6.97159 16.9203 7.04156C16.9734 6.97159 17.0133 6.89526 17.0332 6.84437C17.073 6.90162 17.2258 7.067 17.5246 7.08609C17.4582 7.00976 17.4117 6.9207 17.3851 6.84437C17.4516 6.89526 17.5246 6.93979 17.5976 6.98431C17.8035 7.07973 18.0957 7.08609 18.0957 7.08609C18.0226 7.04792 17.9496 7.00976 17.8898 6.97159C17.943 6.97159 18.1289 6.95887 18.2551 6.90798C18.348 6.86345 18.4609 6.80621 18.5605 6.76168C18.6535 6.71715 18.7398 6.68535 18.8129 6.68535C18.8926 6.68535 18.9523 6.69171 18.9922 6.69807C18.9656 6.76804 18.8926 6.94615 18.8461 6.95887C18.8062 6.87618 18.5605 6.76168 18.5605 6.76168C18.5605 6.76168 18.5473 6.97795 18.4875 6.99067C18.4211 6.93343 18.2551 6.90798 18.2551 6.90798C18.2551 6.90798 18.4476 7.02884 18.4808 7.08609C18.5738 7.04792 18.6336 6.8889 18.6336 6.8889C18.6336 6.8889 18.7996 6.98431 18.8262 7.08609C18.9789 6.95887 19.1117 6.74896 19.1516 6.67899C19.1715 6.71079 19.198 6.75532 19.2312 6.80621V7.39141L18.9789 7.16242V7.3596L19.2644 7.61404L19.4504 7.44866V11.5832C19.2113 11.3861 19.0055 10.4256 19.0055 10.4256L18.9922 10.6736C18.9922 10.6736 19.291 11.8504 19.5301 12.0476C19.5301 12.0476 19.5367 11.9903 19.5367 11.9649C19.623 12.1239 19.8156 12.4292 20.0812 12.5437V12.4674C20.1476 12.6264 20.473 13.0526 20.6457 13.1226C20.6457 13.1226 20.5859 12.9826 20.5859 12.8872C20.5726 11.2016 20.5859 6.36094 20.5859 6.36094C20.5859 6.13831 20.2141 5.64852 19.7293 5.34956C19.4039 5.53403 19.0453 5.94749 18.9191 5.97929C18.9191 6.09379 18.9656 6.19556 18.9656 6.31642V6.53905C18.6601 6.55177 18.5273 6.69171 18.275 6.82529C18.1289 6.90162 17.923 6.96523 17.8766 6.97795C17.7769 6.90798 17.6973 6.83801 17.6375 6.74896C17.498 6.53905 17.4383 6.27189 17.4383 6.01109C17.4383 5.8966 17.5711 5.76938 17.5711 5.68033C17.5711 5.54039 17.5578 5.4577 17.5578 5.4577C17.6043 5.46406 17.684 5.54039 17.684 5.54039C17.684 5.54039 17.684 5.3114 17.6043 5.27323C17.6043 5.27323 17.6375 5.24143 17.7437 5.24143C17.7105 5.1651 17.5578 5.07604 17.5578 5.07604C17.5644 5.06332 17.5777 5.0506 17.5976 5.04424C17.6375 5.02516 17.6906 5.01243 17.7305 5.00607C17.684 4.99971 17.6375 4.98699 17.5777 4.96791C17.4516 4.92974 17.2988 4.87249 17.1594 4.80888C16.9269 4.67531 16.7344 4.66895 16.6215 4.66895ZM16.6281 4.73891C16.6547 4.73891 16.6746 4.73891 16.6945 4.73891C16.9469 4.73891 17.1195 4.84705 17.3519 4.94882C17.4117 4.97427 17.4715 4.99335 17.518 5.01243C17.4848 5.03788 17.4648 5.06332 17.4582 5.08876C17.4582 5.08876 17.5644 5.10785 17.6109 5.19054C17.6109 5.19054 17.5113 5.20326 17.4914 5.26051C17.5445 5.26687 17.6043 5.33048 17.6043 5.40045L17.4648 5.35592C17.4648 5.35592 17.498 5.50858 17.498 5.67397C17.498 5.75666 17.3719 5.85843 17.3719 6.00473C17.3719 6.45636 17.4914 6.6281 17.5777 6.76804C17.6109 6.82529 17.6375 6.8889 17.6906 6.93342C17.4449 6.80621 17.2656 6.65355 17.2656 6.50724V5.96021H17.1992V6.50724C17.1992 6.60902 17.2258 6.65991 17.2258 6.65991C17.2656 6.7744 17.3387 6.95251 17.3918 7.02884C17.166 6.91434 17.0531 6.76804 17.0531 6.71079V5.96021H16.9867V6.72351L17 6.7744C16.9734 6.81257 16.9402 6.85709 16.9137 6.87618C16.8871 6.86345 16.8539 6.81257 16.8273 6.7744L16.8406 6.72351V5.96021H16.7742V6.71079C16.7742 6.76168 16.6613 6.90798 16.4355 7.02884C16.482 6.95887 16.5617 6.78076 16.6016 6.65991C16.6016 6.65991 16.6281 6.60902 16.6281 6.50724V5.96021H16.5684V6.50724C16.5684 6.65355 16.3891 6.80621 16.1434 6.93342C16.1965 6.8889 16.223 6.82529 16.2562 6.76804C16.3492 6.61538 16.4621 6.41819 16.4621 5.86479C16.4621 5.65488 16.4289 5.51494 16.3758 5.41953C16.3559 5.38773 16.3359 5.29867 16.4687 5.29867C16.5351 5.29867 16.6879 5.41317 16.6879 5.41317C16.6879 5.41317 16.6812 5.32412 16.6016 5.27323C16.5883 5.26687 16.5684 5.23507 16.5684 5.20962C16.5684 5.19054 16.6016 5.14601 16.6281 5.13329C16.648 5.12693 16.3625 5.07604 16.3625 4.95519C16.3625 4.92974 16.3824 4.91066 16.4355 4.91066C16.5152 4.91066 16.6348 4.99971 16.7476 4.99971C16.8273 4.99971 16.8605 4.98063 16.9469 4.98063C17.0531 4.98063 17.2656 5.1651 17.3387 5.15873C17.259 5.10785 17.1262 4.92338 16.9203 4.92338C16.8473 4.92338 16.7875 4.9361 16.7211 4.9361C16.6348 4.9361 16.5551 4.85977 16.4621 4.85977C16.4023 4.85977 16.3359 4.86613 16.3226 4.84705C16.3027 4.82161 16.3226 4.80888 16.3359 4.78344C16.3691 4.74528 16.4555 4.73255 16.5351 4.72619C16.5816 4.73891 16.6082 4.73891 16.6281 4.73891ZM14.1047 5.55947C14.1047 5.55947 14.5496 5.95385 14.7023 6.00473L14.709 6.13831V6.52633C14.6027 6.48816 14.4633 6.31642 14.3969 6.22737V6.17648C14.3969 6.12559 14.4301 6.08743 14.45 6.06834L14.3836 6.0429C14.357 6.06834 14.3305 6.11287 14.3305 6.16376V6.19556L14.3105 6.21464L14.2973 6.22737L14.1312 6.39911L13.9387 6.11923V6.04926C13.9387 6.00473 13.9785 5.95385 14.0051 5.91568L13.9387 5.8966C13.9055 5.93476 13.8723 5.99201 13.8723 6.0429V6.10015C13.8258 6.14467 13.6531 6.31642 13.6531 6.31642C13.6531 6.31642 13.5668 6.13195 13.5402 6.08742C13.6797 5.90296 13.8988 5.69941 14.1047 5.55947ZM19.7359 5.55947C19.9418 5.70577 20.1609 5.90296 20.2937 6.08106C20.2672 6.13195 20.1808 6.31006 20.1808 6.31006C20.1808 6.31006 20.0016 6.13831 19.9617 6.09379V6.03654C19.9617 5.98565 19.9285 5.9284 19.8953 5.89024L19.8289 5.90932C19.8621 5.94749 19.8953 5.99837 19.8953 6.0429V6.11287L19.7027 6.39275L19.5367 6.221L19.5234 6.20828L19.5035 6.1892V6.1574C19.5035 6.10651 19.4769 6.06198 19.4504 6.03654L19.384 6.06198C19.4039 6.08106 19.4371 6.11923 19.4371 6.17012V6.221C19.3707 6.31006 19.2312 6.4818 19.125 6.51997V6.13195L19.1316 5.99837C19.2844 5.94749 19.7359 5.55947 19.7359 5.55947ZM13.4672 6.20192L13.5668 6.38003V6.69807L13.4141 6.83801V6.36094C13.4141 6.31642 13.434 6.25917 13.4672 6.20192ZM20.3734 6.20192C20.4066 6.25917 20.4266 6.31642 20.4266 6.36094V6.83801L20.2738 6.69807V6.38003L20.3734 6.20192ZM13.8723 6.24009L14.0516 6.50088V6.69807L13.8723 6.85709V6.24009ZM19.9617 6.24009V6.86346L19.7824 6.70443V6.50724L19.9617 6.24009ZM13.8125 6.28461V6.85709L13.6332 6.69807V6.46272L13.8125 6.28461ZM20.0281 6.28461L20.2074 6.46272V6.69807L20.0281 6.85709V6.28461ZM14.3637 6.32914C14.3902 6.37367 14.5164 6.56449 14.6293 6.62174C14.5894 6.67899 14.4766 6.81257 14.3637 6.87618V6.32914ZM19.4769 6.32914V6.87618C19.3574 6.81257 19.2512 6.67899 19.2113 6.62174C19.3242 6.56449 19.4504 6.37367 19.4769 6.32914ZM14.2973 6.35458V6.85709L14.118 6.69807V6.51997L14.2973 6.35458ZM19.5367 6.35458L19.716 6.51997V6.69807L19.5367 6.85709V6.35458ZM13.5668 6.89526V7.39777L13.4141 7.25783V7.0352L13.5668 6.89526ZM20.2672 6.89526L20.4199 7.0352V7.25783L20.2672 7.39777V6.89526ZM13.6332 6.89526L13.7328 6.98431L13.8125 7.05428V7.23239L13.7328 7.30236L13.6332 7.39141V6.89526ZM14.0516 6.89526V7.39777L13.9519 7.30872L13.8723 7.23875V7.06064L13.9519 6.99067L14.0516 6.89526ZM14.118 6.89526L14.2973 7.05428V7.23239L14.2176 7.30236L14.118 7.39141V6.89526ZM14.543 6.89526V7.39777L14.4434 7.30872L14.3637 7.23875V7.07336C14.4234 7.02884 14.4832 6.96523 14.543 6.89526ZM19.2976 6.89526C19.3508 6.96523 19.4172 7.02884 19.4769 7.067V7.23239L19.3973 7.30236L19.2976 7.39141V6.89526ZM19.716 6.89526V7.39777L19.6164 7.30872L19.5367 7.23875V7.06064L19.716 6.89526ZM19.7824 6.89526L19.882 6.98431L19.9617 7.05428V7.23239L19.882 7.30236L19.7824 7.39141V6.89526ZM20.2074 6.89526V7.39777L20.1078 7.30872L20.0281 7.23875V7.06064L20.1078 6.99067L20.2074 6.89526ZM13.8988 7.44866L14.0848 7.6204L14.2707 7.45502V11.5896C14.2707 11.5896 14.284 11.7932 14.2906 11.9267C14.2043 12.0094 13.8922 12.3147 13.8922 12.3147V7.44866H13.8988ZM19.9418 7.44866V12.3147C19.9418 12.3147 19.623 12.0094 19.5433 11.9267C19.55 11.7932 19.5633 11.5896 19.5633 11.5896V7.45502L19.7492 7.6204L19.9418 7.44866ZM13.7926 7.44866V12.1557C13.7926 12.2893 13.5402 12.601 13.4141 12.671V7.44866L13.6 7.61404L13.7926 7.44866ZM20.048 7.44866L20.234 7.61404L20.4199 7.44866V12.671C20.3004 12.601 20.0414 12.2893 20.0414 12.1557V7.44866H20.048ZM15.3465 11.1443C15.3465 11.1443 15.1672 11.5005 15.0941 11.5642C15.0941 11.5642 15.1406 11.5705 15.1937 11.5705C15.1605 11.615 14.9082 11.9649 14.8285 12.0985C14.7555 12.2193 14.7023 12.1684 14.5894 12.1684C14.4965 12.1684 14.284 12.3147 14.2441 12.372C14.2043 12.4356 14.1777 12.5056 14.1777 12.5692C14.1777 12.6391 14.2508 12.7282 14.2508 12.7282C14.2574 12.6964 14.2707 12.6837 14.2707 12.6837C14.2707 12.6837 14.4699 12.919 14.4965 12.9508C14.5164 12.9763 14.616 12.989 14.6559 12.9572C14.7422 12.8809 14.8285 12.8236 14.9082 12.7155C14.948 12.6582 14.9547 12.5946 15.0012 12.531C15.1539 12.3275 15.466 11.9331 15.5391 11.844C15.5457 11.8695 15.5457 11.8886 15.5523 11.914C15.632 11.7613 16.0172 11.4624 16.0172 11.4624L15.9109 11.3924C15.9109 11.3924 15.6785 11.6532 15.6055 11.6977C15.6055 11.6977 15.5723 11.5705 15.5523 11.526C15.5523 11.526 15.466 11.5896 15.4129 11.5896C15.4129 11.5896 15.3996 11.5005 15.3863 11.4433C15.3266 11.4815 15.2203 11.4751 15.2203 11.4751C15.3066 11.4369 15.4129 11.1825 15.4129 11.1825L15.3465 11.1443ZM18.4875 11.1443L18.4144 11.1825C18.4144 11.1825 18.5207 11.4306 18.6137 11.4751C18.6137 11.4751 18.5141 11.4815 18.4476 11.4433C18.4344 11.5005 18.4211 11.5896 18.4211 11.5896C18.3746 11.5896 18.2816 11.526 18.2816 11.526C18.2617 11.5705 18.2285 11.6977 18.2285 11.6977C18.1555 11.6469 17.923 11.3924 17.923 11.3924L17.8168 11.4624C17.8168 11.4624 18.2019 11.7613 18.2816 11.914C18.2883 11.8886 18.2883 11.8695 18.2949 11.844C18.368 11.9331 18.6734 12.3275 18.8328 12.531C18.8793 12.5946 18.8793 12.6582 18.9258 12.7155C19.0055 12.8236 19.0918 12.8809 19.1781 12.9572C19.2113 12.989 19.3109 12.9699 19.3375 12.9508C19.3641 12.919 19.5633 12.6837 19.5633 12.6837C19.5633 12.6837 19.5766 12.6964 19.5832 12.7282C19.5832 12.7282 19.6562 12.6328 19.6562 12.5692C19.6562 12.5056 19.6297 12.4356 19.5898 12.372C19.5566 12.3147 19.3375 12.1684 19.2445 12.1684C19.1316 12.1684 19.0785 12.2257 19.0055 12.0985C18.9258 11.9649 18.6734 11.6214 18.6402 11.5705C18.6934 11.5705 18.7398 11.5642 18.7398 11.5642C18.6734 11.5005 18.4875 11.1443 18.4875 11.1443ZM15.3199 11.5451C15.3199 11.5451 15.3199 11.6659 15.3598 11.7041L15.4992 11.615C15.4992 11.615 15.5059 11.6596 15.5191 11.7168C15.4594 11.7932 15.1207 12.2384 14.9547 12.4547C14.9148 12.5056 14.875 12.6455 14.875 12.6455C14.875 12.6455 14.8152 12.6201 14.8152 12.5692C14.8152 12.5183 14.8219 12.461 14.8219 12.461C14.8219 12.461 14.7754 12.5119 14.6957 12.5119C14.6957 12.4547 14.8152 12.3847 14.8219 12.302C14.7289 12.3656 14.6492 12.3338 14.543 12.3656C14.4234 12.3974 14.3902 12.4483 14.357 12.4483C14.3371 12.4483 14.3172 12.4102 14.3238 12.3911C14.3371 12.3529 14.4832 12.2511 14.5828 12.2321C14.6094 12.2257 14.7953 12.2702 14.8351 12.213C14.9945 11.9776 15.2535 11.596 15.2734 11.5642C15.2934 11.5578 15.3133 11.5514 15.3199 11.5451ZM18.5141 11.5451C18.5273 11.5514 18.5406 11.5578 18.5539 11.5578C18.5805 11.596 18.8328 11.9776 18.9922 12.2066C19.032 12.2639 19.2246 12.2193 19.2445 12.2257C19.3441 12.2448 19.4902 12.3465 19.5035 12.3847C19.5101 12.4038 19.4902 12.442 19.4703 12.442C19.4371 12.442 19.4039 12.3974 19.2844 12.3593C19.1781 12.3275 19.0984 12.3593 19.0055 12.2957C19.0121 12.3847 19.1316 12.4483 19.1316 12.5056C19.0519 12.5056 19.0055 12.4547 19.0055 12.4547C19.0055 12.4547 19.0121 12.5119 19.0121 12.5628C19.0121 12.6137 18.9523 12.6391 18.9523 12.6391C18.9523 12.6391 18.9191 12.4992 18.8726 12.4483C18.7066 12.2321 18.368 11.7868 18.3082 11.7105C18.3215 11.6532 18.3281 11.6087 18.3281 11.6087L18.4676 11.6977C18.5141 11.6659 18.5141 11.5451 18.5141 11.5451ZM16.4223 11.6341C16.4223 11.6341 15.6652 13.2943 15.0012 13.5488C15.0012 13.5488 15.2934 13.6696 15.6519 13.8477C15.7051 13.8732 15.7582 13.8986 15.8113 13.9304C15.8578 13.8795 15.9043 13.8223 15.9508 13.7587C16.1633 13.4851 16.3758 13.1671 16.3758 13.1671C16.3891 13.2498 16.2762 13.5042 16.0836 13.8159C16.0437 13.8795 16.0039 13.9431 15.9641 14.0067C16.0105 14.0322 16.0637 14.0576 16.1101 14.0894C16.4621 14.293 16.7941 14.5283 16.9203 14.7446C17.0465 14.5283 17.3785 14.293 17.7305 14.0894C17.7769 14.064 17.8234 14.0322 17.8766 14.0067C17.8367 13.9431 17.7969 13.8795 17.757 13.8159C17.5644 13.5042 17.4516 13.2498 17.4648 13.1671C17.4648 13.1671 17.6707 13.4851 17.8898 13.7587C17.9363 13.8159 17.9828 13.8795 18.0293 13.9304C18.0824 13.905 18.1355 13.8732 18.1887 13.8477C18.5473 13.6696 18.8394 13.5488 18.8394 13.5488C18.1687 13.2943 17.4184 11.6341 17.4184 11.6341L17.3055 11.6659C17.3055 11.6659 17.9098 13.0971 18.4941 13.536C18.3613 13.5742 18.2019 13.6315 18.0426 13.6951C17.8434 13.4724 17.6441 13.1798 17.4781 12.9127C17.2988 12.6264 17.1527 12.1303 17.1527 12.1303C17.073 12.3211 17.2457 13.288 17.6043 13.8986C17.3121 14.0449 17.0465 14.2039 16.9269 14.3311C16.8008 14.2039 16.5418 14.0449 16.2496 13.8986C16.6016 13.288 16.7809 12.3211 16.7012 12.1303C16.7012 12.1303 16.5551 12.6328 16.3758 12.9127C16.2098 13.1798 16.0105 13.4724 15.8113 13.6951C15.6519 13.6315 15.4926 13.5742 15.3598 13.536C15.9508 13.1035 16.5484 11.6659 16.5484 11.6659L16.4223 11.6341ZM14.4566 12.4292C14.4633 12.4292 14.4699 12.4292 14.4699 12.4356C14.4766 12.442 14.4766 12.4547 14.4699 12.461L14.4101 12.5119C14.4035 12.5183 14.3902 12.5183 14.3836 12.5119C14.3769 12.5056 14.3769 12.4928 14.3836 12.4865L14.4434 12.4356C14.4434 12.4292 14.45 12.4292 14.4566 12.4292ZM19.384 12.4292C19.3906 12.4292 19.3973 12.4292 19.3973 12.4356L19.457 12.4865C19.4637 12.4928 19.4637 12.5056 19.457 12.5119C19.4504 12.5183 19.4371 12.5247 19.4305 12.5119L19.3707 12.461C19.3641 12.4547 19.3641 12.442 19.3707 12.4356C19.3707 12.4356 19.3773 12.4292 19.384 12.4292ZM14.523 12.4801C14.5363 12.4801 14.5562 12.4865 14.5629 12.4992C14.5828 12.5183 14.5828 12.5501 14.5629 12.5628L14.4101 12.69C14.3902 12.7091 14.357 12.7028 14.3371 12.6837C14.3172 12.6646 14.3172 12.6328 14.3371 12.6137L14.4898 12.4865C14.5031 12.4865 14.5098 12.4801 14.523 12.4801ZM19.3043 12.4801C19.3109 12.4801 19.3109 12.4801 19.3176 12.4801C19.3242 12.4801 19.3375 12.4865 19.3441 12.4929L19.4969 12.6201C19.5168 12.6392 19.5168 12.6646 19.4969 12.69C19.4769 12.7091 19.4437 12.7155 19.4238 12.6964L19.2711 12.5692C19.2512 12.5501 19.2512 12.5247 19.2711 12.5056C19.2777 12.4928 19.291 12.4865 19.3043 12.4801ZM14.6094 12.5819C14.6226 12.5819 14.6426 12.5883 14.6559 12.601C14.6758 12.6201 14.6758 12.6519 14.6559 12.6646L14.5031 12.7918C14.4832 12.8109 14.45 12.8045 14.4367 12.7855C14.4168 12.7664 14.4168 12.7346 14.4367 12.7155L14.5894 12.5883C14.5894 12.5819 14.5961 12.5819 14.6094 12.5819ZM19.218 12.5819C19.2246 12.5819 19.2246 12.5819 19.2312 12.5819C19.2379 12.5819 19.2512 12.5883 19.2578 12.5946L19.4105 12.7218C19.4305 12.7409 19.4305 12.7664 19.4105 12.7918C19.3906 12.8109 19.3641 12.8173 19.3441 12.7982L19.1914 12.671C19.1715 12.6519 19.1715 12.6264 19.1914 12.6073C19.1914 12.5883 19.2047 12.5819 19.218 12.5819ZM14.7023 12.6773C14.7156 12.6773 14.7355 12.6837 14.7488 12.6964C14.7687 12.7155 14.7687 12.7473 14.7488 12.7664L14.5961 12.8936C14.5762 12.9127 14.543 12.9063 14.5297 12.8872C14.5098 12.8681 14.5098 12.8363 14.5297 12.8236L14.6824 12.6964C14.6824 12.6773 14.6957 12.6773 14.7023 12.6773ZM19.1183 12.6773C19.125 12.6773 19.125 12.6773 19.1316 12.6773C19.1383 12.6773 19.1516 12.6837 19.1582 12.69L19.3109 12.8173C19.3308 12.8363 19.3308 12.8618 19.3109 12.8809C19.291 12.8999 19.2644 12.9063 19.2445 12.8872L19.0918 12.76C19.0719 12.7409 19.0719 12.7155 19.0918 12.69C19.0984 12.6837 19.1117 12.6773 19.1183 12.6773Z" fill="#000A22"/>
<path d="M14.8551 12.7534L15.207 12.9379L15.1207 13.3132L14.7688 13.1287L14.8551 12.7534Z" fill="#000A22"/>
<path d="M13.2148 9.15332L13.0887 9.21057L14.523 12.2193H14.6758L13.2148 9.15332ZM14.9082 12.6963L14.8019 12.7981L14.8683 12.9381L14.9945 12.8808L14.9082 12.6963Z" fill="#000A22"/>
<path d="M14.9082 12.8618L15.1273 12.9763L15.0742 13.2053L14.8551 13.0908L14.9082 12.8618Z" fill="#F3EB38"/>
<path d="M13.6598 11.5259C13.6598 11.5259 13.7793 11.7676 13.8723 11.7994C13.8258 11.7867 13.6731 11.8376 13.6731 11.8376C13.6731 11.8376 13.9453 12.0729 14.1777 12.0856C14.3703 12.0984 14.4699 12.0029 14.4699 12.0029L14.4301 11.8058C14.4301 11.8058 14.3106 11.6658 14.118 11.6022C13.9188 11.5386 13.6598 11.5259 13.6598 11.5259Z" fill="#000A22"/>
<path d="M14.5695 11.0933C14.5695 11.0933 14.4035 11.2332 14.357 11.3859C14.3105 11.5449 14.3836 11.723 14.3836 11.723L14.523 11.9711C14.523 11.9711 14.7156 11.8693 14.8019 11.723C14.8816 11.5767 14.8551 11.3731 14.8551 11.3731C14.8551 11.3731 14.7023 11.4304 14.6824 11.4495C14.7156 11.3032 14.5695 11.0933 14.5695 11.0933Z" fill="#000A22"/>
<path d="M14.0383 11.0296C14.0383 11.0296 13.8457 11.0932 13.6664 11.0805C13.4938 11.0678 13.3477 10.9278 13.3477 10.9278C13.3477 10.9278 13.4938 10.8324 13.5668 10.8451C13.4871 10.8197 13.3742 10.6289 13.3742 10.6289C13.3742 10.6289 13.5402 10.5843 13.6797 10.6352C13.8258 10.6861 13.952 10.8388 13.952 10.8388L14.0383 11.0296Z" fill="#000A22"/>
<path d="M14.098 10.1455C14.098 10.1455 14.191 10.3363 14.1711 10.3999C14.1976 10.3554 14.3105 10.2918 14.3105 10.2918C14.3105 10.2918 14.3769 10.5971 14.3105 10.7816C14.2441 10.9724 14.0516 11.0424 14.0516 11.0424L13.8324 10.6417C13.8324 10.6417 13.7992 10.4954 13.8656 10.3745C13.9453 10.2536 14.098 10.1455 14.098 10.1455Z" fill="#000A22"/>
<path d="M12.8695 9.64935C12.8695 9.64935 13.0754 9.63027 13.2613 9.70024C13.4207 9.76385 13.4672 9.87834 13.4672 9.87834L13.5469 10.0755C13.5469 10.0755 13.3211 10.1582 13.1484 10.0946C12.9692 10.031 12.843 9.83381 12.843 9.83381C12.843 9.83381 12.9692 9.78929 13.0156 9.80837C12.9359 9.77021 12.8695 9.64935 12.8695 9.64935Z" fill="#000A22"/>
<path d="M13.5137 9.28076C13.5137 9.28076 13.6066 9.3889 13.6066 9.51611C13.6332 9.44614 13.7394 9.37618 13.7394 9.37618C13.7394 9.37618 13.8523 9.64333 13.8324 9.83416C13.8059 10.025 13.6398 10.1395 13.6398 10.1395L13.434 9.76419C13.434 9.76419 13.3676 9.61153 13.3875 9.49067C13.4074 9.36345 13.5137 9.28076 13.5137 9.28076Z" fill="#000A22"/>
<path d="M12.8031 8.56152C12.8031 8.56152 12.7633 8.76507 12.8297 8.88593C12.8828 8.99406 12.9227 9.01315 12.9227 9.01315C12.8164 8.94318 12.6504 8.93682 12.6504 8.93682C12.6504 8.93682 12.7102 9.15945 12.8496 9.26122C12.9891 9.363 13.2016 9.33755 13.2016 9.33755C13.2016 9.33755 13.341 9.15945 13.3344 8.96862C13.3211 8.77779 13.1617 8.56788 13.1617 8.56788C13.1617 8.56788 13.0953 8.6951 13.0953 8.78415C13.0488 8.68874 12.8031 8.56152 12.8031 8.56152Z" fill="#000A22"/>
<path d="M12.8629 8.68262C12.8629 8.68262 12.8562 8.83528 12.9094 8.91797C12.9625 9.00066 13.0754 9.03883 13.0754 9.03883C13.0754 9.03883 13.082 8.88617 13.0289 8.80347C12.9824 8.72078 12.8629 8.68262 12.8629 8.68262Z" fill="#2A6038"/>
<path d="M12.7566 9.01953C12.7566 9.01953 12.8894 9.02589 12.9691 9.08314C13.0488 9.14039 13.0754 9.26124 13.0754 9.26124C13.0754 9.26124 12.9824 9.2676 12.9094 9.21036C12.8363 9.15947 12.7566 9.01953 12.7566 9.01953Z" fill="#2A6038"/>
<path d="M13.1817 8.7207C13.1817 8.7207 13.1352 8.82248 13.1418 8.92425C13.1484 9.03239 13.2149 9.15324 13.2149 9.15324C13.2149 9.15324 13.2746 9.02603 13.268 8.91789C13.2613 8.80976 13.2016 8.75251 13.1817 8.7207Z" fill="#2A6038"/>
<path d="M12.9558 9.68775C12.9558 9.68775 13.0223 9.77681 13.1285 9.82769C13.2281 9.87858 13.3875 9.87858 13.3875 9.87858C13.3875 9.87858 13.3078 9.78317 13.2082 9.73228C13.0953 9.68139 12.9558 9.68775 12.9558 9.68775Z" fill="#2A6038"/>
<path d="M12.9891 9.89111C12.9891 9.89111 13.0355 9.98016 13.1285 10.0247C13.2215 10.0629 13.4008 10.0629 13.4008 10.0629C13.4008 10.0629 13.3277 9.9738 13.2414 9.93564C13.1484 9.89747 12.9891 9.89111 12.9891 9.89111Z" fill="#2A6038"/>
<path d="M13.507 9.40137C13.507 9.40137 13.4539 9.48406 13.4605 9.57947C13.4672 9.67489 13.5336 9.77666 13.5336 9.77666C13.5336 9.77666 13.5801 9.6558 13.5734 9.56039C13.5601 9.47134 13.507 9.40137 13.507 9.40137Z" fill="#2A6038"/>
<path d="M13.7063 9.52246C13.7063 9.52246 13.6133 9.64332 13.6 9.76417C13.5867 9.88503 13.6531 10.0122 13.6531 10.0122C13.6531 10.0122 13.766 9.90411 13.7793 9.78326C13.7926 9.6624 13.7063 9.52246 13.7063 9.52246Z" fill="#2A6038"/>
<path d="M13.4473 10.6544C13.4473 10.6544 13.4605 10.6989 13.5004 10.7434C13.5402 10.788 13.6066 10.8389 13.6066 10.8389C13.6066 10.8389 13.673 10.8198 13.7527 10.8325C13.8324 10.8516 13.9387 10.9152 13.9387 10.9152C13.9387 10.9152 13.8258 10.7498 13.7062 10.6862C13.5801 10.6353 13.4473 10.6544 13.4473 10.6544Z" fill="#2A6038"/>
<path d="M13.434 10.9346C13.434 10.9346 13.5801 10.8773 13.7062 10.89C13.8258 10.9028 13.9387 10.9982 13.9387 10.9982C13.9387 10.9982 13.7727 11.0554 13.6531 11.0363C13.5269 11.0236 13.434 10.9346 13.434 10.9346Z" fill="#2A6038"/>
<path d="M14.0582 10.2793C14.0582 10.2793 13.9254 10.4129 13.9188 10.5274C13.9055 10.6419 14.025 10.75 14.025 10.75C14.025 10.75 14.0184 10.6737 14.0383 10.6291C14.0582 10.5783 14.098 10.5274 14.098 10.5274C14.098 10.5274 14.118 10.4701 14.1113 10.4192C14.1047 10.3556 14.0582 10.2793 14.0582 10.2793Z" fill="#2A6038"/>
<path d="M14.2508 10.4316C14.2508 10.4316 14.1246 10.5525 14.0981 10.6797C14.0649 10.8069 14.1246 10.9405 14.1246 10.9405C14.1246 10.9405 14.2375 10.8578 14.2707 10.7306C14.2973 10.6034 14.2508 10.4316 14.2508 10.4316Z" fill="#2A6038"/>
<path d="M14.5562 11.2017C14.5562 11.2017 14.6094 11.3098 14.6226 11.4052C14.6359 11.5006 14.6226 11.5324 14.6226 11.5324C14.6226 11.5324 14.5629 11.5897 14.5363 11.6215C14.5031 11.6596 14.4965 11.736 14.4965 11.736C14.4965 11.736 14.3836 11.5706 14.3969 11.4497C14.4234 11.3289 14.5562 11.2017 14.5562 11.2017Z" fill="#2A6038"/>
<path d="M14.802 11.4624C14.802 11.4624 14.6559 11.5578 14.5961 11.6532C14.5363 11.7486 14.5695 11.8504 14.5695 11.8504C14.5695 11.8504 14.6758 11.8441 14.7355 11.7423C14.7887 11.6405 14.802 11.4624 14.802 11.4624Z" fill="#2A6038"/>
<path d="M13.8258 11.8565C13.8258 11.8565 14.0383 11.8501 14.1711 11.8819C14.3039 11.9137 14.3504 11.9773 14.3504 11.9773C14.3504 11.9773 14.2043 12.0409 14.0715 12.0155C13.9387 11.9837 13.8258 11.8565 13.8258 11.8565Z" fill="#2A6038"/>
<path d="M13.7926 11.615C13.7926 11.615 13.8856 11.7549 14.0117 11.8121C14.1844 11.8821 14.3836 11.8503 14.3836 11.8503C14.3836 11.8503 14.2773 11.7231 14.1246 11.6658C13.9785 11.6086 13.7926 11.615 13.7926 11.615Z" fill="#2A6038"/>
<path d="M14.4766 11.9964L14.4832 12.0727C14.6094 12.0727 14.6293 12.06 14.6625 12.0982C14.6824 12.1236 14.7355 12.1491 14.7887 12.1236C14.8418 12.0982 14.8617 12.0409 14.8418 11.99C14.8152 11.9392 14.7688 11.9264 14.7223 11.9392C14.6957 11.9455 14.6758 11.9646 14.6492 11.9773C14.6027 12.0028 14.4766 11.9964 14.4766 11.9964Z" fill="#000A22"/>
<path d="M14.7953 12.0094C14.8086 12.0349 14.7953 12.0667 14.7688 12.0794C14.7422 12.0921 14.709 12.0794 14.6957 12.054C14.6824 12.0285 14.6957 11.9967 14.7223 11.984C14.7488 11.9713 14.782 11.984 14.7953 12.0094Z" fill="#F3EB38"/>
<path d="M14.4633 11.9395L14.523 11.984C14.4566 12.0858 14.4367 12.0985 14.45 12.143C14.4633 12.1748 14.4566 12.2257 14.4035 12.2575C14.357 12.2893 14.2906 12.2766 14.2574 12.2321C14.2242 12.1875 14.2441 12.143 14.2773 12.1112C14.2973 12.0921 14.3238 12.0858 14.3504 12.073C14.4035 12.0412 14.4633 11.9395 14.4633 11.9395Z" fill="#000A22"/>
<path d="M14.3039 12.2066C14.3238 12.232 14.357 12.2384 14.3836 12.2193C14.4102 12.2002 14.4168 12.1684 14.3969 12.143C14.377 12.1175 14.3438 12.1112 14.3172 12.1302C14.2973 12.1493 14.2906 12.1811 14.3039 12.2066Z" fill="#F3EB38"/>
<path d="M14.0316 11.0682L14.0383 11.1445C14.1644 11.1445 14.1844 11.1318 14.2176 11.17C14.2375 11.1954 14.2906 11.2208 14.3437 11.1954C14.3969 11.17 14.4168 11.1127 14.3969 11.0618C14.3703 11.0109 14.3238 10.9982 14.2773 11.0109C14.2508 11.0173 14.2309 11.0364 14.2043 11.0491C14.1578 11.0682 14.0316 11.0682 14.0316 11.0682Z" fill="#000A22"/>
<path d="M14.3504 11.0808C14.3637 11.1062 14.3504 11.138 14.3238 11.1508C14.2973 11.1635 14.2641 11.1508 14.2508 11.1253C14.2375 11.0999 14.2508 11.0681 14.2774 11.0554C14.3039 11.0363 14.3371 11.049 14.3504 11.0808Z" fill="#F3EB38"/>
<path d="M14.0582 11.0933L14.1113 11.1441C14.025 11.2396 14.0051 11.2459 14.0184 11.2904C14.025 11.3223 14.0051 11.3731 13.9586 11.3986C13.9055 11.424 13.8457 11.3986 13.8191 11.3477C13.7926 11.2968 13.8191 11.2586 13.859 11.2268C13.8789 11.2078 13.9121 11.2078 13.9387 11.2014C13.9785 11.1823 14.0582 11.0933 14.0582 11.0933Z" fill="#000A22"/>
<path d="M13.859 11.3289C13.8723 11.3543 13.9055 11.367 13.932 11.3543C13.9586 11.3416 13.9719 11.3098 13.9586 11.2843C13.9453 11.2589 13.9121 11.2462 13.8855 11.2589C13.859 11.2716 13.8457 11.3034 13.859 11.3289Z" fill="#F3EB38"/>
<path d="M13.6 10.1966L13.6066 10.2729C13.7328 10.2729 13.7527 10.2602 13.7859 10.2984C13.8059 10.3238 13.859 10.3493 13.9121 10.3238C13.9652 10.2984 13.9852 10.2411 13.9652 10.1902C13.9387 10.1394 13.8922 10.1266 13.8457 10.1394C13.8191 10.1457 13.7992 10.1648 13.7727 10.1775C13.7262 10.1966 13.6 10.1966 13.6 10.1966Z" fill="#000A22"/>
<path d="M13.9188 10.2092C13.932 10.2347 13.9188 10.2665 13.8922 10.2792C13.8656 10.2919 13.8324 10.2792 13.8192 10.2537C13.8059 10.2283 13.8192 10.1965 13.8457 10.1838C13.8723 10.1647 13.9121 10.1774 13.9188 10.2092Z" fill="#F3EB38"/>
<path d="M13.6399 10.1772L13.693 10.2281C13.6133 10.3235 13.5867 10.3299 13.6 10.3744C13.6067 10.4062 13.5867 10.4571 13.5402 10.4826C13.4871 10.508 13.4274 10.4826 13.4008 10.4317C13.3742 10.3808 13.4008 10.3426 13.4406 10.3108C13.4606 10.2917 13.4938 10.2917 13.5203 10.2854C13.5602 10.2727 13.6399 10.1772 13.6399 10.1772Z" fill="#000A22"/>
<path d="M13.4406 10.4192C13.4539 10.4446 13.4871 10.4574 13.5137 10.4446C13.5402 10.4319 13.5535 10.4001 13.5402 10.3747C13.527 10.3492 13.4938 10.3365 13.4672 10.3492C13.4406 10.362 13.4273 10.3938 13.4406 10.4192Z" fill="#F3EB38"/>
<path d="M13.1418 9.27424L13.1484 9.35057C13.2746 9.35057 13.2945 9.33785 13.3277 9.37601C13.3477 9.40146 13.4008 9.4269 13.4539 9.40146C13.507 9.37601 13.527 9.31876 13.507 9.26788C13.4805 9.21699 13.434 9.20427 13.3875 9.21699C13.361 9.22335 13.341 9.24243 13.3145 9.25516C13.268 9.2806 13.1418 9.27424 13.1418 9.27424Z" fill="#000A22"/>
<path d="M13.4672 9.28678C13.4805 9.31223 13.4672 9.34403 13.4406 9.35675C13.4141 9.36947 13.3809 9.35675 13.3676 9.33131C13.3543 9.30586 13.3676 9.27406 13.3942 9.26134C13.4141 9.24862 13.4539 9.26134 13.4672 9.28678Z" fill="#F3EB38"/>
<path d="M13.1816 9.26123L13.2348 9.31212C13.1551 9.40753 13.1285 9.41389 13.1418 9.45842C13.1484 9.49022 13.1285 9.54111 13.082 9.56655C13.0289 9.592 12.9691 9.56655 12.9426 9.51566C12.916 9.46478 12.9426 9.42661 12.9824 9.39481C13.0023 9.37573 13.0355 9.37573 13.0621 9.36937C13.1019 9.35028 13.1816 9.26123 13.1816 9.26123Z" fill="#000A22"/>
<path d="M12.9824 9.49684C12.9957 9.52228 13.0289 9.535 13.0555 9.52228C13.082 9.50956 13.0953 9.47776 13.082 9.45231C13.0687 9.42687 13.0355 9.41414 13.009 9.42687C12.9824 9.43959 12.9691 9.47139 12.9824 9.49684Z" fill="#F3EB38"/>
<path d="M13.952 10.8452C13.9055 10.8643 13.8391 10.6735 13.786 10.5654C13.7328 10.4572 13.6332 10.2918 13.6598 10.2791C13.693 10.2664 13.7328 10.3491 13.786 10.4636C13.8391 10.5781 13.9918 10.8325 13.952 10.8452Z" fill="#F3EB38"/>
<path d="M13.4805 9.84038C13.434 9.85946 13.3875 9.73224 13.3344 9.63047C13.2813 9.52233 13.2348 9.446 13.2613 9.43328C13.2945 9.42056 13.341 9.51597 13.3809 9.59866C13.4273 9.68771 13.527 9.82765 13.4805 9.84038Z" fill="#F3EB38"/>
<path d="M14.5695 12.1238C14.5363 12.1365 14.377 11.8185 14.2508 11.5513C14.1246 11.2841 14.0317 11.0679 14.0582 11.0552C14.0914 11.0424 14.191 11.2905 14.3172 11.5577C14.4434 11.8248 14.5961 12.1111 14.5695 12.1238Z" fill="#F3EB38"/>
<path d="M14.8484 9.10889L14.8551 10.7309L14.9746 10.9217L15.7648 11.3352L16.7676 11.7805L16.9004 11.914L17.7703 11.4561L18.793 10.9917L18.9855 10.7055V9.11525L14.8484 9.10889Z" fill="#2F5AA1"/>
<path d="M14.7953 7.15625L14.8484 7.30255L14.8352 9.15993L14.9082 9.23626L15.5059 9.30623L16.15 9.21718C16.15 9.21718 16.5285 9.27443 16.7875 9.31259L16.7941 9.35076C16.7941 9.35076 16.8871 9.33804 16.9203 9.33168C16.9469 9.33804 17.0398 9.35076 17.0398 9.35076L17.0465 9.31259C17.3055 9.27443 17.684 9.21718 17.684 9.21718L18.3281 9.30623L18.9258 9.23626L18.9988 9.15993L18.9855 7.30255L19.0387 7.15625L18.3215 7.16261C18.3215 7.16261 17.5047 7.16897 16.9137 7.17533C16.3293 7.16897 15.5059 7.16261 15.5059 7.16261L14.7953 7.15625Z" fill="#C1202D"/>
<path d="M15.0012 9.2296L15.3266 9.10874L15.5524 8.94336L15.7051 9.10238L16.0172 9.22324L15.7649 9.36318L15.5391 9.54764L15.3465 9.40771L15.0012 9.2296Z" fill="#F3EB38"/>
<path d="M18.2817 8.94971L18.1356 9.10237L17.8234 9.22323L18.1156 9.40133L18.3016 9.56035L18.5074 9.40133L18.8395 9.24231L18.5008 9.10873L18.2817 8.94971Z" fill="#F3EB38"/>
<path d="M16.9203 7.41699L16.8207 7.69687L16.5351 7.56965L16.6613 7.83681L16.3891 7.94495L16.6613 8.034L16.5484 8.30752L16.8074 8.17394L16.9203 8.45382L17.0265 8.17394L17.2855 8.28843L17.1726 8.034L17.4449 7.94495L17.1793 7.83045L17.2988 7.55693L17.0265 7.69051L16.9203 7.41699Z" fill="#F3EB38"/>
<path d="M17.6707 7.37211L17.757 7.67107L17.8965 8.05273L17.9098 8.4153L17.757 8.68245L17.4715 8.79059L17.3187 8.84148L17.1328 8.74606L16.927 8.86692L16.7012 8.73334L16.5152 8.86056L16.4023 8.78423L16.1965 8.75242L15.9641 8.52343L15.9109 8.09725L16.1965 7.35303L15.8445 7.62655L15.5391 8.01456V8.52979L15.7582 8.87328L16.1434 9.12136L16.2563 9.1468L16.0703 9.47757L16.3891 9.56662L16.5551 9.72564L16.6414 10.0437L16.6281 10.7307L16.5285 10.8833L16.3094 11.0296L16.3027 11.1568L16.5352 11.2968L16.741 11.4558L17.0465 11.4685L17.3055 11.2904L17.5313 11.1696L17.4715 10.9787L17.2391 10.8006L17.1926 10.26L17.259 9.71928L17.5977 9.50937L17.777 9.45848L17.591 9.12136L17.8766 9.02594L18.1887 8.76515L18.3348 8.24355L18.2418 7.92551L18.0293 7.65835L17.6707 7.37211Z" fill="#F3EB38"/>
<path d="M16.3293 9.71289L16.4687 9.84647L16.3426 9.96732L16.2098 9.84011L16.3293 9.71289Z" fill="#F3EB38"/>
<path d="M17.5047 9.7002L17.3719 9.83377L17.4914 9.96099L17.6375 9.84013L17.5047 9.7002Z" fill="#F3EB38"/>
<path d="M17.6043 10.0439L17.3586 10.1012L17.2988 10.2348L17.2922 10.6101L17.3984 10.82L17.5313 10.8772L17.5113 10.3874L17.6043 10.0439Z" fill="#F3EB38"/>
<path d="M16.2363 10.0503L16.3227 10.4638V10.8709L16.4422 10.7818L16.5285 10.6037L16.5418 10.2856L16.4754 10.0948L16.2363 10.0503Z" fill="#F3EB38"/>
<path d="M18.4742 10.3811L18.1887 10.2539L17.9164 10.3048L17.777 10.4638L17.7637 10.7246L17.9629 10.9472L18.0094 10.96L18.0027 10.7182L18.2219 10.4384L18.4742 10.3811Z" fill="#F3EB38"/>
<path d="M15.7781 10.2919L15.7516 10.1774L15.5988 10.0947L15.4727 10.1456L15.4063 10.2665L15.4461 10.381L15.3133 10.3682L15.207 10.4637L15.1871 10.5972L15.2602 10.6799L15.3664 10.7117H15.4262L15.3731 10.8262L15.4129 10.9407L15.5391 11.0107L15.6719 10.9725L15.7449 10.8453L15.8645 10.9216L16.0039 10.8898L16.0969 10.7563L16.0371 10.629L15.9641 10.5782L16.0637 10.5273L16.1035 10.3746L15.9707 10.2283L15.8445 10.2474L15.7781 10.2919Z" fill="#F3EB38"/>
<path d="M16.2031 7.26416C16.1832 7.4041 15.466 7.68398 15.466 8.26282C15.466 8.99433 16.1832 9.17243 16.1832 9.17243L16.15 9.22332L15.9773 9.52864C15.9773 9.52864 16.2762 9.54136 16.4289 9.66858C16.6215 9.82124 16.6016 10.152 16.6016 10.3937C16.6016 10.5846 16.575 10.7817 16.4754 10.8644C16.3426 10.9726 16.2496 10.9853 16.2496 11.1125C16.2496 11.2206 16.3359 11.2397 16.4754 11.3097C16.6547 11.3987 16.648 11.526 16.9137 11.526C17.1793 11.526 17.1727 11.4051 17.352 11.3097C17.4914 11.2397 17.5777 11.2143 17.5777 11.1125C17.5777 10.9853 17.4848 10.9726 17.352 10.8644C17.2523 10.7817 17.2258 10.5846 17.2258 10.3937C17.2258 10.152 17.2059 9.8276 17.3984 9.66858C17.5578 9.54136 17.85 9.52864 17.85 9.52864L17.6773 9.22332L17.6441 9.17243C17.6441 9.17243 18.3613 9.00069 18.3613 8.26282C18.3613 7.69034 17.6441 7.4041 17.6242 7.26416C17.5512 7.49951 17.8633 7.83028 17.8633 8.2183C17.8633 8.72081 17.4781 8.74625 17.4781 8.74625C17.3852 8.74625 17.352 8.80986 17.3187 8.80986C17.2457 8.8035 17.2059 8.70809 17.1328 8.70809C17.0598 8.70809 17.0066 8.80986 16.9137 8.80986C16.8207 8.80986 16.7676 8.70809 16.6945 8.70809C16.6215 8.70809 16.5816 8.8035 16.5086 8.80986C16.4754 8.80986 16.4355 8.74625 16.3492 8.74625C16.3492 8.74625 15.9641 8.72081 15.9641 8.2183C15.9641 7.83028 16.2762 7.49951 16.2031 7.26416ZM17.684 9.21696C17.684 9.21696 18.1688 9.42051 18.2949 9.59225C18.5672 9.39506 18.9324 9.23604 18.9324 9.23604C18.9324 9.23604 18.5871 9.14699 18.2949 8.89891C18.1289 9.11518 17.684 9.21696 17.684 9.21696ZM16.1566 9.21696C16.1566 9.21696 15.7117 9.11518 15.5457 8.90527C15.2535 9.15335 14.9082 9.2424 14.9082 9.2424C14.9082 9.2424 15.2668 9.40142 15.5457 9.59861C15.6719 9.42051 16.1566 9.21696 16.1566 9.21696ZM16.9203 7.31505L16.7941 7.65218L16.4555 7.49951L16.6148 7.82392L16.2629 7.94478L16.6148 8.06563L16.4555 8.39004L16.7941 8.23738L16.9203 8.57451L17.0465 8.23738L17.3852 8.39004L17.2258 8.06563L17.5777 7.94478L17.2258 7.82392L17.3852 7.49951L17.0465 7.65218L16.9203 7.31505ZM16.1035 7.47407C16.1301 7.53768 15.8645 7.91297 15.8645 8.2183C15.8645 8.59359 16.077 8.81622 16.3559 8.81622C16.409 8.81622 16.4687 8.88619 16.5152 8.88619C16.5949 8.88619 16.6547 8.79714 16.7012 8.79714C16.7676 8.79714 16.8074 8.89255 16.9203 8.89255C17.0332 8.89255 17.073 8.79714 17.1395 8.79714C17.1926 8.79714 17.2457 8.88619 17.3254 8.88619C17.3785 8.88619 17.4316 8.81622 17.4848 8.81622C17.7637 8.81622 17.9762 8.59359 17.9762 8.2183C17.9762 7.91297 17.7039 7.53768 17.7371 7.47407C17.7371 7.47407 18.2617 7.83664 18.2617 8.26282C18.2617 8.9498 17.5379 9.12154 17.5379 9.12154L17.7039 9.47139C17.7039 9.47139 17.4781 9.5032 17.3387 9.61133C17.1527 9.75127 17.1527 10.1329 17.1527 10.3937C17.1527 10.699 17.166 10.8263 17.2789 10.909C17.3984 10.998 17.4914 11.0171 17.4914 11.1061C17.4914 11.1825 17.3984 11.2143 17.2723 11.2652C17.1328 11.3224 17.1195 11.4242 16.9203 11.4242C16.7211 11.4242 16.7078 11.3224 16.5684 11.2652C16.4422 11.2143 16.3492 11.1825 16.3492 11.1061C16.3492 11.0171 16.4422 10.998 16.5617 10.909C16.6746 10.8263 16.6879 10.699 16.6879 10.3937C16.6879 10.1329 16.6879 9.75127 16.502 9.61133C16.3625 9.5032 16.1367 9.47139 16.1367 9.47139L16.3027 9.12154C16.3027 9.12154 15.5789 8.9498 15.5789 8.26282C15.5723 7.83028 16.1035 7.47407 16.1035 7.47407ZM16.9203 7.54404L17 7.76031L17.2191 7.65854L17.1195 7.86845L17.3453 7.94478L17.1195 8.02111L17.2191 8.23102L17 8.1356L16.9203 8.35187L16.8406 8.1356L16.6281 8.23102L16.7277 8.02111L16.502 7.94478L16.7277 7.86845L16.6281 7.65854L16.8406 7.76031L16.9203 7.54404ZM15.5391 9.01341C15.6852 9.17243 15.9176 9.23604 15.9176 9.23604C15.9176 9.23604 15.6785 9.3569 15.5457 9.5032V9.50956C15.5457 9.50956 15.5457 9.50956 15.5391 9.50956L15.5324 9.51592V9.5032C15.393 9.3887 15.1207 9.25512 15.1207 9.25512C15.1207 9.25512 15.3863 9.15971 15.5391 9.01341ZM18.3016 9.01341C18.4543 9.16607 18.7199 9.24876 18.7199 9.24876C18.7199 9.24876 18.4477 9.37598 18.3082 9.49684V9.50956L18.3016 9.5032C18.3016 9.5032 18.3016 9.5032 18.2949 9.5032V9.49684C18.1621 9.3569 17.923 9.22968 17.923 9.22968C17.923 9.22968 18.1555 9.17243 18.3016 9.01341ZM16.3359 9.66858L16.1633 9.83396L16.3359 9.99935L16.5086 9.83396L16.3359 9.66858ZM17.5047 9.66858L17.332 9.83396L17.5047 9.99935L17.6773 9.83396L17.5047 9.66858ZM16.3359 9.75127L16.4289 9.84033L16.3359 9.92938L16.243 9.84033L16.3359 9.75127ZM17.5047 9.75127L17.5977 9.84033L17.5047 9.92938L17.4117 9.84033L17.5047 9.75127ZM16.1766 9.99935C16.2098 10.082 16.2895 10.3301 16.2895 10.6354C16.2895 10.8453 16.2695 10.9535 16.2695 10.9535C16.2695 10.9535 16.5152 10.8835 16.5617 10.6482C16.5816 10.54 16.6082 10.1266 16.4953 10.0566L16.1766 9.99935ZM17.6641 9.99935L17.3453 10.0566C17.2258 10.1266 17.2523 10.5337 17.2789 10.6482C17.3254 10.8835 17.5711 10.9535 17.5711 10.9535C17.5711 10.9535 17.5512 10.8453 17.5512 10.6354C17.5445 10.3365 17.6242 10.082 17.6641 9.99935ZM15.5855 10.0693C15.5723 10.0693 15.559 10.0693 15.5457 10.0757C15.4395 10.1011 15.373 10.2093 15.3996 10.311C15.4062 10.3301 15.4129 10.3428 15.4195 10.3556C15.4062 10.3492 15.3863 10.3492 15.3664 10.3428C15.3598 10.3428 15.3531 10.3428 15.3465 10.3428C15.2402 10.3492 15.1539 10.4255 15.1473 10.5273C15.1406 10.6354 15.227 10.7309 15.3398 10.7372C15.3598 10.7372 15.373 10.7372 15.3863 10.7372C15.3797 10.7499 15.3664 10.7627 15.3598 10.7817C15.3199 10.8835 15.3664 10.998 15.4727 11.0362C15.5789 11.0743 15.6984 11.0235 15.7383 10.928C15.7449 10.9153 15.7516 10.8962 15.7516 10.8835C15.7582 10.8962 15.7715 10.909 15.7848 10.9217C15.8711 10.9916 16.0039 10.9789 16.0703 10.8962C16.1434 10.8135 16.1301 10.6927 16.0438 10.6227C16.0305 10.61 16.0172 10.6036 16.0039 10.5973C16.0172 10.5909 16.0371 10.5846 16.0504 10.5782C16.1434 10.5209 16.1766 10.4001 16.1168 10.3047C16.077 10.2411 16.0039 10.2093 15.9309 10.2156C15.8977 10.2156 15.8645 10.2283 15.8379 10.2474C15.8246 10.2538 15.8113 10.2665 15.798 10.2792C15.798 10.2665 15.798 10.2474 15.7914 10.2283C15.7648 10.1266 15.6785 10.063 15.5855 10.0693ZM16.2895 10.0948L16.4621 10.1266C16.5219 10.2093 16.5152 10.3428 16.5152 10.5337C16.5152 10.7245 16.3691 10.7945 16.3691 10.7945C16.3625 10.3365 16.316 10.2283 16.2895 10.0948ZM17.5512 10.0948C17.5246 10.2347 17.4781 10.3428 17.4781 10.7945C17.4781 10.7945 17.332 10.7245 17.332 10.5337C17.332 10.3492 17.3187 10.2093 17.3852 10.1266L17.5512 10.0948ZM15.5988 10.152C15.6719 10.152 15.7383 10.1965 15.7582 10.2665C15.7648 10.2856 15.7648 10.2983 15.7582 10.3174C15.7582 10.3301 15.7516 10.3428 15.7449 10.3556C15.7184 10.3492 15.6918 10.3428 15.6652 10.3428C15.5988 10.3428 15.5324 10.3746 15.4926 10.4192C15.4793 10.4064 15.4727 10.4001 15.466 10.3874C15.4594 10.3746 15.4461 10.3619 15.4461 10.3428C15.4262 10.2601 15.4793 10.1775 15.559 10.1584C15.5723 10.152 15.5855 10.152 15.5988 10.152ZM18.1422 10.2156C17.8832 10.2156 17.6906 10.4064 17.7172 10.6482C17.7371 10.8453 17.9098 11.0171 18.1156 11.0616C18.0824 11.0044 18.0559 10.9408 18.0492 10.8772C18.0227 10.6418 18.2152 10.451 18.4742 10.451C18.5141 10.451 18.5539 10.4573 18.5938 10.4637C18.5008 10.311 18.3281 10.2156 18.1422 10.2156ZM15.9176 10.2665C15.9707 10.2665 16.0172 10.292 16.0438 10.3365C16.0902 10.4064 16.0703 10.5019 15.9906 10.5464C15.9773 10.5527 15.9574 10.5591 15.9441 10.5655C15.9309 10.5655 15.9176 10.5655 15.9043 10.5655V10.5591C15.9043 10.4701 15.8445 10.3874 15.7648 10.3556C15.7715 10.3428 15.7781 10.3301 15.7848 10.3174C15.798 10.3047 15.8047 10.2919 15.8246 10.2856C15.8512 10.2729 15.8844 10.2665 15.9176 10.2665ZM18.1422 10.2983C18.2219 10.2983 18.3016 10.3238 18.368 10.3619C18.1156 10.4064 17.9297 10.6227 17.9562 10.8772C17.8766 10.8135 17.8168 10.7245 17.8035 10.6291C17.7836 10.4446 17.923 10.2983 18.1422 10.2983ZM15.3996 10.3937C15.4195 10.3937 15.4328 10.4001 15.4527 10.4064C15.466 10.4128 15.4793 10.4192 15.4859 10.4255C15.4527 10.4637 15.4395 10.5082 15.4395 10.5655C15.4395 10.6036 15.4527 10.6418 15.4727 10.6736C15.4594 10.68 15.4461 10.6863 15.4328 10.6927C15.4195 10.699 15.3996 10.699 15.3863 10.699C15.3 10.6927 15.2336 10.6227 15.2402 10.54C15.2402 10.451 15.3133 10.3874 15.3996 10.3937ZM15.6719 10.4128C15.7582 10.4128 15.8246 10.4764 15.8246 10.5591C15.8246 10.6418 15.7582 10.7054 15.6719 10.7054C15.5855 10.7054 15.5191 10.6418 15.5191 10.5591C15.5191 10.4828 15.5855 10.4128 15.6719 10.4128ZM15.9043 10.5846C15.9176 10.5846 15.9375 10.5909 15.9508 10.5973C15.9641 10.6036 15.984 10.61 15.9973 10.6227C16.0637 10.6736 16.0703 10.7754 16.0172 10.839C15.9641 10.9026 15.8578 10.9153 15.7914 10.8581C15.7781 10.8453 15.7648 10.8326 15.7582 10.8199C15.7516 10.8072 15.7449 10.7945 15.7449 10.7817C15.8246 10.7499 15.891 10.6736 15.9043 10.5846ZM15.4793 10.6863C15.5191 10.7436 15.5922 10.7817 15.6719 10.7817C15.6918 10.7817 15.7051 10.7817 15.7184 10.7754C15.7184 10.7881 15.725 10.8008 15.725 10.8199C15.725 10.839 15.7184 10.8517 15.7117 10.8644C15.6785 10.9408 15.5855 10.9789 15.5059 10.9471C15.4262 10.9153 15.3863 10.8263 15.4195 10.7499C15.4262 10.7372 15.4328 10.7181 15.4461 10.7054C15.4527 10.7054 15.466 10.6927 15.4793 10.6863ZM16.6414 11.0489C16.4953 11.0489 16.409 11.0807 16.409 11.1189C16.409 11.1634 16.502 11.1888 16.6414 11.1888C16.6813 11.1888 16.7211 11.1698 16.7211 11.1189C16.7211 11.0743 16.6813 11.0489 16.6414 11.0489ZM17.1926 11.0489C17.1527 11.0489 17.1129 11.068 17.1129 11.1189C17.1129 11.1698 17.1527 11.1888 17.1926 11.1888C17.3387 11.1888 17.425 11.1634 17.425 11.1189C17.425 11.0807 17.3387 11.0489 17.1926 11.0489Z" fill="#000A22"/>
<path d="M14.6094 7.10498C14.6094 7.10498 14.7953 7.23856 14.7953 7.3785V10.2345V10.6671C14.7953 10.7561 14.8219 10.807 14.8684 10.8643C14.9148 10.9215 15.0078 11.0042 15.1074 11.0678C15.4129 11.2586 15.9176 11.4558 16.3027 11.6212C16.6215 11.7612 16.7543 11.8184 16.9203 12.0156C17.0863 11.8184 17.2191 11.7612 17.5379 11.6212C17.923 11.4558 18.4277 11.2586 18.7332 11.0678C18.8328 11.0042 18.9258 10.9279 18.9723 10.8643C19.0188 10.807 19.0453 10.7498 19.0453 10.6671V10.2345V7.3785C19.0453 7.23856 19.2313 7.10498 19.2313 7.10498H19.032H18.9125H16.927H14.9414H14.8219H14.6094ZM14.8551 7.21312H14.9348H16.9203H18.9059H18.9855C18.9855 7.21312 18.9324 7.27673 18.9324 7.38486V10.2409V10.6734C18.9324 10.7434 18.8527 10.9152 18.4078 11.1251C17.6641 11.4813 17.0996 11.6467 16.927 11.8438C16.7543 11.6403 16.1832 11.4749 15.4461 11.1251C14.9945 10.9088 14.9215 10.7434 14.9215 10.6734V10.2409V7.38486C14.9082 7.27673 14.8551 7.21312 14.8551 7.21312Z" fill="#F3EB38"/>
<path d="M16.8141 5.09496C16.8141 5.15857 16.741 5.20946 16.6547 5.20946C16.5684 5.20946 16.4953 5.15857 16.4953 5.09496C16.4953 5.03136 16.5684 4.98047 16.6547 4.98047C16.741 4.98047 16.8141 5.03136 16.8141 5.09496Z" fill="#000A22"/>
<path d="M15.8844 5.03146C15.8844 5.03146 15.9375 4.93605 16.0703 4.93605C16.1234 4.93605 16.3094 4.92969 16.3094 4.92969C16.3359 4.9933 16.4422 5.09507 16.4422 5.19685C16.4422 5.19685 16.3293 4.99966 16.0106 4.99966C15.9375 5.00602 15.8844 5.03146 15.8844 5.03146Z" fill="#C1202D"/>
<path d="M16.2894 5.05705C16.2894 5.05705 16.2098 5.0316 16.2098 5.00616C16.2098 4.97436 16.2496 4.97436 16.2695 4.9998C16.2894 5.01888 16.2894 5.05705 16.2894 5.05705Z" fill="#000A22"/>
<path d="M16.4023 5.23494C16.4023 5.23494 16.3359 5.30491 16.3226 5.33672C16.2562 5.31127 16.1433 5.19678 16.1433 5.19678C16.1433 5.19678 16.2297 5.25403 16.4023 5.23494Z" fill="#C1202D"/>
<path d="M21.3496 8.63184L21.1039 8.80358L21.1305 8.86083C21.1305 8.86083 21.084 8.87355 21.0641 8.91172C21.0441 8.94988 21.0773 9.00713 21.0773 9.00713C21.0773 9.00713 20.8449 8.98805 20.8051 9.00713C20.7719 9.02621 20.8184 9.18524 20.7984 9.31245C20.7652 9.49692 20.6922 9.47784 20.6922 9.516C20.6922 9.54781 20.7187 9.60505 20.7187 9.60505C20.7187 9.60505 20.6723 9.61778 20.6656 9.63686C20.6523 9.66866 20.6789 9.71955 20.659 9.75135C20.5594 9.94218 20.4066 10.2284 20.307 10.4129C20.2937 10.4383 20.2539 10.4511 20.234 10.4829C20.2141 10.5147 20.234 10.5655 20.234 10.5655C20.234 10.5655 20.1676 10.5719 20.1476 10.6101C20.1211 10.6546 20.1344 10.7182 20.1344 10.7182C20.1344 10.7182 20.0945 10.7246 20.0746 10.7627C20.0547 10.8009 20.0879 10.8263 20.0812 10.8454C19.9484 11.0999 19.7891 11.3925 19.6961 11.5769C19.6629 11.6405 19.5367 11.6596 19.4637 11.7932C19.3906 11.9268 19.4969 12.0222 19.4969 12.0222C19.4969 12.0222 19.3906 12.0286 19.3641 12.0858C19.3375 12.1367 19.3574 12.2194 19.4305 12.2575C19.5035 12.2957 19.5898 12.2639 19.6164 12.213C19.643 12.1621 19.5898 12.0731 19.5898 12.0731C19.5898 12.0731 19.7293 12.0922 19.8023 11.9586C19.8754 11.825 19.8156 11.7232 19.8488 11.6533C19.9418 11.4752 20.1012 11.1762 20.234 10.9218C20.2406 10.9027 20.2805 10.9218 20.307 10.8772C20.3269 10.8391 20.307 10.8009 20.307 10.8009C20.307 10.8009 20.3668 10.7755 20.3934 10.7309C20.4133 10.6864 20.3801 10.6355 20.3801 10.6355C20.3801 10.6355 20.4266 10.6164 20.4465 10.5846C20.4664 10.5465 20.4531 10.5147 20.4664 10.4892C20.566 10.3048 20.7187 10.0185 20.8184 9.82769C20.8383 9.79588 20.898 9.78316 20.9113 9.75135C20.918 9.73227 20.9047 9.69411 20.9047 9.69411C20.9047 9.69411 20.9711 9.68775 20.9976 9.6623C21.0242 9.63686 20.9711 9.59233 21.1039 9.45875C21.2035 9.36334 21.3629 9.30609 21.3562 9.26793C21.3562 9.2234 21.1969 9.05802 21.1969 9.05802C21.1969 9.05802 21.2633 9.05166 21.2832 9.01349C21.3031 8.97532 21.2898 8.9308 21.2898 8.9308L21.3562 8.91808V8.63184H21.3496ZM19.0254 12.8555C18.9922 12.8555 18.9723 12.8746 18.9656 12.8873C18.959 12.9064 18.9523 12.9318 18.9656 12.9509C18.9656 12.9509 18.8859 12.9254 18.8594 12.9382C18.8328 12.9509 18.8594 13.3007 18.8594 13.3007C18.8594 13.3007 19.1715 13.1099 19.1648 13.0845C19.1582 13.059 19.0918 13.0081 19.0918 13.0081C19.1184 13.0018 19.1383 12.9891 19.1449 12.97C19.1582 12.9509 19.1582 12.8936 19.0852 12.8618C19.0719 12.8555 19.0453 12.8491 19.0254 12.8555Z" fill="#000A22"/>
<path d="M21.3031 8.71436L21.157 8.80977L21.2301 8.84793L21.3031 8.8861V8.71436ZM21.1637 8.87974C21.1371 8.87974 21.1172 8.89246 21.1039 8.9179C21.084 8.95607 21.1039 9.0006 21.1437 9.01968C21.1836 9.03876 21.2367 9.02604 21.25 8.99424C21.2699 8.95607 21.25 8.91154 21.2101 8.89246C21.1969 8.87974 21.1769 8.87974 21.1637 8.87974ZM20.8914 9.04512C20.8715 9.04512 20.8516 9.04512 20.8516 9.04512C20.8383 9.05784 20.8582 9.1787 20.8516 9.28684C20.8449 9.38861 20.8117 9.41405 20.7918 9.45222C20.7719 9.48402 20.7121 9.52219 20.7121 9.52219L20.7652 9.57308C20.7652 9.57308 20.7984 9.52219 20.8516 9.42678C20.9113 9.31228 20.9113 9.10237 20.9312 9.08965C20.9445 9.07693 21.0773 9.05148 21.0773 9.05148C21.0773 9.05148 20.9578 9.04512 20.8914 9.04512ZM21.1172 9.07057C21.1172 9.07057 20.9844 9.09601 20.9644 9.11509C20.9445 9.13418 20.9512 9.30592 20.8848 9.44586C20.825 9.56036 20.7984 9.59852 20.7984 9.59852L20.8383 9.6176L20.8781 9.63669C20.8781 9.63669 20.898 9.59216 20.9578 9.47766C21.0308 9.34408 21.1836 9.24231 21.1902 9.21687C21.1703 9.19142 21.1172 9.07057 21.1172 9.07057ZM21.157 9.08965C21.157 9.08965 21.2035 9.21051 21.2101 9.22323C21.2101 9.24231 21.0308 9.36317 20.9711 9.48402C20.918 9.5858 20.898 9.63669 20.898 9.63669L20.9711 9.64941C20.9711 9.64941 20.9644 9.57944 20.9844 9.54763C21.0043 9.50947 21.0109 9.4713 21.0906 9.40769C21.1769 9.33772 21.2965 9.28048 21.2965 9.26775C21.2898 9.24867 21.157 9.08965 21.157 9.08965ZM20.7586 9.64941C20.7387 9.64941 20.7187 9.66213 20.7121 9.68121C20.6988 9.70666 20.7055 9.73846 20.5992 9.94201C20.5527 10.0311 20.5328 10.0629 20.4797 10.1646C20.4266 10.2601 20.3535 10.4 20.3535 10.4C20.3535 10.4 20.3269 10.4445 20.3734 10.47C20.4199 10.4954 20.4398 10.4445 20.4398 10.4445C20.4398 10.4445 20.5129 10.3046 20.566 10.2092C20.6191 10.1138 20.6391 10.0756 20.6855 9.98654C20.7918 9.78299 20.825 9.77026 20.8383 9.74482C20.8515 9.71938 20.8516 9.68121 20.7984 9.65577C20.7851 9.64941 20.7719 9.64941 20.7586 9.64941ZM20.2937 10.489C20.2738 10.489 20.2605 10.4954 20.2539 10.5081C20.2406 10.5336 20.2605 10.5717 20.307 10.5908C20.3469 10.6099 20.3933 10.6099 20.4066 10.5845C20.4199 10.559 20.3933 10.5209 20.3535 10.5018C20.3336 10.489 20.3137 10.489 20.2937 10.489ZM20.234 10.6099C20.2008 10.6099 20.1808 10.6163 20.1676 10.6417C20.1476 10.6735 20.1742 10.718 20.2273 10.7435C20.2805 10.7689 20.3336 10.7626 20.3469 10.7308C20.3668 10.699 20.3402 10.6544 20.2871 10.629C20.2672 10.6163 20.2473 10.6099 20.234 10.6099ZM20.1476 10.7626C20.1277 10.7626 20.1144 10.7689 20.1078 10.7816C20.0945 10.8071 20.1144 10.8453 20.1609 10.8643C20.2008 10.8834 20.2473 10.8834 20.2605 10.858C20.2738 10.8325 20.2539 10.7944 20.2074 10.7753C20.1875 10.7689 20.1676 10.7626 20.1476 10.7626ZM20.1144 10.8961C20.0879 10.8961 20.0746 10.9279 20.0746 10.9279C20.0746 10.9279 19.8023 11.4368 19.7094 11.6149C19.6762 11.6722 19.55 11.7103 19.5035 11.7994C19.4504 11.8948 19.4902 11.9839 19.5566 12.0157C19.623 12.0475 19.7226 12.022 19.7691 11.9266C19.8223 11.8312 19.7758 11.7103 19.8023 11.6531C19.8953 11.475 20.1676 10.9661 20.1676 10.9661C20.1676 10.9661 20.1941 10.9216 20.1476 10.8961C20.1277 10.8961 20.1211 10.8961 20.1144 10.8961ZM19.457 12.0666C19.4238 12.0666 19.3973 12.0793 19.384 12.1047C19.3641 12.1429 19.384 12.1938 19.4371 12.2192C19.4836 12.2447 19.5433 12.2319 19.5633 12.1938C19.5832 12.1556 19.5566 12.1047 19.5101 12.0793C19.4969 12.0729 19.4769 12.0666 19.457 12.0666ZM19.0254 12.8871C19.0121 12.8871 18.9988 12.8935 18.9922 12.8998C18.9789 12.9189 19.0055 12.9507 19.0387 12.9698C19.0785 12.9889 19.1117 12.9889 19.125 12.9698C19.1383 12.9507 19.1117 12.9189 19.0785 12.8998C19.0586 12.8871 19.0453 12.8871 19.0254 12.8871ZM18.8992 12.9825V13.237L19.1117 13.0907C19.1117 13.0907 19.0851 13.0398 19.0187 13.008C18.959 12.9762 18.8992 12.9825 18.8992 12.9825Z" fill="#F3EB38"/>
<path d="M16.7676 5.09495C16.7676 5.1522 16.7144 5.20309 16.6547 5.20309C16.5949 5.20309 16.5418 5.1522 16.5418 5.09495C16.5418 5.0377 16.5949 4.98682 16.6547 4.98682C16.7144 4.99318 16.7676 5.0377 16.7676 5.09495Z" fill="#F3EB38"/>
<path d="M16.7078 5.09532C16.7078 5.12076 16.6879 5.14621 16.6547 5.14621C16.6281 5.14621 16.6016 5.12713 16.6016 5.09532C16.6016 5.06352 16.6215 5.04443 16.6547 5.04443C16.6813 5.05079 16.7078 5.06988 16.7078 5.09532Z" fill="#000A22"/>
</svg>
